<?xml version="1.0" encoding="utf-8"?>
<!-- Generator: Adobe Illustrator 16.0.4, SVG Export Plug-In . SVG Version: 6.00 Build 0)  -->
<!DOCTYPE svg PUBLIC
        "-//W3C//DTD SVG 1.1//EN"
        "http://www.w3.org/Graphics/SVG/1.1/DTD/svg11.dtd">


<svg xmlns="http://www.w3.org/2000/svg"
     xmlns:xlink="http://www.w3.org/1999/xlink"
     viewBox="200 285 220 140"
     version="1.1"
     style="display: block;margin-left: auto;margin-right: auto;">

    <defs>

        <style type="text/css"><![CDATA[

.g0_1{
   fill: #FDC011;
}
.g1_1 {
    fill: none;
    stroke: #FCCC24;
    stroke-width: 1.5277778;
    stroke-linecap: butt;
    stroke-linejoin: miter;
}
.g2_1 {
    fill: #EE1D23;
}
.g3_1{
    fill: none;
      stroke: #FCCC24;
    stroke-width: 0.7638889;
    stroke-linecap: butt;
    stroke-linejoin: miter;
    stroke-dasharray: 1000 1000;

}
.g4_1 {
    fill: #ffffff;
}
.g5_1, text{
    fill: #ffffff;
}



]]></style>

    </defs>
    <path d="M0,0 L0,909 L640,909 L640,0 Z " fill="#000000" stroke="none"/>
    <path fill-rule="evenodd" d="M254.8,383.4l.4,.6c0,0,.1,0,.1,0c0,0,0,.1,0,.1l.4,.2q.1,.1,.3,.2l-.2,.8c0,0,.1,0,.1,0l.6,.6c.2,-.1,.4,-.2,.6,-.3c-.1,-.2,-.1,-.1,-.1,-.2c-.1,0,-.2,0,-.1,0c0,-.7,.2,-.4,.5,-.2c.1,-.4,.8,-.5,-.2,-1.2c-.3,-.2,-.5,-.1,-.7,-.5c-.1,-.4,0,-.3,.2,-.6l-.5,-.2c.7,-.3,.3,0,.4,-.6c.5,-.2,-.1,.1,.6,.1q.1,0,.1,0q0,-.1,0,-.1c.1,-.6,-.1,-.4,.4,-.8c.3,-.2,.3,-.4,.5,-.8c.1,-.2,0,0,.1,-.3c.1,-.7,-.1,0,.1,-.4c.4,-.8,.7,-.7,1.4,-.9c.2,0,.3,-.1,.6,-.1c.4,0,.2,.1,.4,.1c.4,-.1,.6,-.5,1.9,0c.2,.1,.2,0,.3,.1c-.5,-.5,0,.4,-.1,-.3c-.1,-.5,0,-.1,0,-.3l.4,.1c.5,0,.2,0,.7,.1c.5,.2,.1,-.1,.4,.2c.1,-.5,0,-.1,.3,-.2c.9,0,-.4,.3,.3,.1c.9,-.3,.6,-.1,1.5,.9c.5,.7,.9,.2,1.4,1.2l.3,.8c0,0,-.1,.9,-.1,.9c-.3,.4,-.7,.1,-1,0c-.1,.8,.6,.3,.3,2.3c-.3,.1,-.2,0,-.5,.2q-.2,.1,-.4,.3c-.4,.2,-.7,.2,-1,.5c-.5,-.4,-.4,-.2,-.9,-.4c-.3,-.1,-.3,-.2,-.5,-.2c-.8,0,-1.3,.8,-1.8,-.3c-.4,.1,-.7,.3,-1.2,.2c-.2,0,-.3,0,-.5,-.1l-.3,-.3l-.4,.3c-.3,.2,-.5,.2,-.8,.2h-.3c-.1,-.1,-.1,0,-.1,0c0,0,0,.1,0,.1c0,.2,0,.3,-.2,.5c.2,.3,.5,.5,.9,.5c.3,-.1,.6,-.5,.9,-.2l.2,.3c-.2,0,-.3,.2,-.4,.3c.3,0,.4,0,.5,0c.5,-.2,0,-.1,.3,-.2l.5,.8c.6,-.1,-.1,-.2,.5,.2c.3,.2,.3,-.1,.7,-.1c0,.4,-.1,.4,.2,.6c.4,.3,.4,.1,.5,0c0,.4,-.4,.6,-.4,.6c0,-.1,-.1,0,-.1,0c0,.3,-.1,.5,-.1,.6c0,0,-.1,0,-.1,0v.1c-.5,.2,-.6,.1,-.8,.2l-.3,.5c-.1,-.4,.3,.2,0,-.1c-.4,-.5,-.3,-.1,-.4,-.1c0,0,-.1,.2,-.1,.2h-.1l-.3,.4c-.4,.4,-.3,.1,-.8,.1c-.8,.2,-.1,.2,-.5,.4c-.4,.2,-.4,0,-.7,-.1c-.5,-.1,-.5,0,-.9,0c-.3,0,-.6,-.1,-.9,-.1c-.4,-.1,-.3,0,-.8,-.1c0,-.2,0,-.3,0,-.4c-.1,-.3,.1,0,-.2,-.3c-.3,-.2,-.3,0,-.5,-.2c0,-.2,-.1,-.8,-.1,-.8c0,0,.1,0,.1,-.1v-.3c0,-.4,-1.2,.2,-.9,1.8c.1,.2,.1,.5,-.1,.6c.1,-1,-.6,-.3,-.3,-2.6q.1,-.1,.2,-.1l.2,-.1c0,0,.1,0,.1,0l-.4,-.3c.4,-.3,.3,-.3,.9,-.3c0,0,-.1,-.1,-.1,-.1V387c0,-.3,-.1,-.1,-.1,-.6c-.1,-.5,-.1,-1,.2,-1.4l-.2,-.7c-.1,-.3,0,-.5,0,-.9m47.6,-31.1c.3,.6,.1,1.4,0,2.3c-.2,1.1,-.4,1,-.8,1.8c-.8,1.5,-.4,.6,-1,1.5c-.2,.3,-.4,.5,-.6,.7c-.6,.5,-.7,-.1,-.9,.5c-.3,.9,.1,.9,-1.3,.8c-.2,.2,-.2,.3,-.3,.5c-.7,0,-1.7,-.3,-2.2,-.6c-.7,-.5,-1.6,-2.5,-1.8,-3.4q-.3,-1,-1.1,-1.4l.3,-.6c-.4,-.3,-.3,-.4,-.8,-.7c-.3,-.2,-.5,-.3,-.7,-.7c-.5,-.8,-.9,-1,-1.3,-1.7c-.2,-.3,-.3,-.6,-.6,-.9c-.8,-1.2,-1.9,-1.9,-2.1,-2.3c-.3,0,-1,.1,-1.2,.1c-.2,.7,-.1,.6,.1,1.1c-.2,.2,-.2,0,-.4,.5c.1,.1,.2,.1,.3,.3h-.8v-.3c0,0,0,-.1,0,-.1v-.2c0,0,-.2,0,-.3,0h-.2v.1l.1,.5c-.4,-.1,-.2,-.2,-.7,-.2c.2,-.3,.1,-.1,.2,-.4c-.4,-.3,-.2,-.3,-.6,-.4c0,0,.1,-.1,.2,-.1c.5,-.4,-.7,-.5,-1,-.5c.1,-.2,.2,-.1,.3,-.3c-.1,-.4,-.1,-.1,-.1,-.4h.8c-.2,-.4,.1,-.4,-.7,-.3c-.7,.1,-.5,-.1,-1,.3c-.2,.1,-.4,.1,-.7,.1c0,1.1,-.3,.1,-.2,1.1c.9,-.4,.9,-.1,.9,.2c-.2,.1,-.3,-.1,-.8,0l.2,1.7c0,0,0,.1,0,.1c.2,-.2,.1,-.1,.2,-.2c0,-.1,.1,-.1,.1,-.2v-.1c.5,.7,.4,.5,-.2,.8c.1,.5,0,.1,.3,.5c-.3,.3,-.6,.3,-.2,.5c.5,.2,.5,-.1,.8,.3c-.3,.1,-.4,0,-.7,0c.1,1.2,.2,.5,.6,1l.4,.5c.5,.5,-.1,.2,.5,1.2c-.4,.3,-.1,.2,-.4,.7c-.2,.3,-.1,.1,-.3,.7c-1.3,0,-.7,0,-1.6,-.1c-.5,.5,-.5,.6,-.6,1.4c-.1,.9,-.5,.7,-.8,1.1c-.2,.2,-.1,.2,-.5,.5c-.6,.6,-.5,1.4,-.6,2.3c.2,-.1,.4,-.1,.8,0c-.1,.3,0,0,-.4,.2v.6l-.4,.2c.1,.4,.1,.5,.2,.9c-.5,.9,.4,-.6,-.2,.2c-.1,.1,-.2,.2,-.1,.6c0,.1,.1,.1,.1,.3c0,0,-.1,.3,-.2,.4q.1,0,.1,0l.4,.2l-.3,.3c0,0,0,.1,0,.1c0,.1,0,.2,.1,.2c.3,.7,-.2,-.3,.1,.2c-1.1,-.1,0,-.4,-.8,-.7c-.2,.2,-.1,.2,-.1,.4l-.1,.2l-.5,-.1c0,-.4,0,-.1,.1,-.3c0,-.1,0,-.2,.1,-.3c.1,-.2,.2,-.4,.1,-.6c-.4,-.2,-.6,0,-1,0c0,-.4,.1,-.2,.4,-.3l-.4,-.7c-.5,.1,-.3,0,-.7,.3c-.3,.3,-.2,0,-.3,.7c-.7,-.1,0,-.2,-.9,-.1c-.8,.1,-1.7,-.2,-2.9,0q0,-.1,0,-.1l-.1,-.2c-.1,-.2,0,-.1,-.1,-.3c-.2,.2,-.2,.4,-.3,.7c.5,-.2,.2,0,.7,.1c.4,.1,.2,-.1,.5,0c.3,0,.2,-.1,.3,.2c-.2,.3,.1,.1,-.3,.2c-.6,.1,-.7,-.2,-.6,.6c-.2,-.1,-.3,-.2,-.3,-.2c.1,.7,.7,.2,1.1,.5c-.3,.2,-.8,.3,-1.2,.1c-.4,-.3,.3,-.2,-.3,-.4q0,.1,0,.1c0,0,0,.1,0,.1c-.1,.2,0,-.3,-.1,.1c-.1,.3,0,.4,0,.7c-.9,0,-.5,0,-1.1,.2c-.2,-.6,.1,-.6,-.5,-.8c-.2,-.1,-.2,0,-.4,0c-.3,-.1,0,.1,-.3,-.1c.4,-.3,.4,0,.6,-.4c-.5,-.2,-1.2,-.1,-.6,-1.1c-.5,-.4,-.3,-.6,-.7,-1c-.2,-.2,0,0,-.1,-.2c-.2,-.2,-.3,-.2,-.6,-.4c-.5,-.3,-.9,-.6,-1.6,-.7c-.1,-.1,-.1,-.3,-.1,-.4c-1.8,-.1,-.4,-.3,-1.9,-.6c-.4,0,-.3,-.1,-.9,-.2c-.7,-.1,-1.5,-1.2,-2.6,-.5c-.5,.4,-.8,.6,-.8,1.5c-.3,.1,.4,-.1,-.1,0l-.3,.9l.3,.1c.2,0,-.1,-.2,.2,0c-.3,.4,-.2,.1,-.2,.7c-.6,-.1,-.2,-.1,-.6,.3c-.2,.2,-.4,.2,-.4,.5c-.3,1.5,-.2,.7,-.6,1.5c-.2,.4,-.1,1.5,-.2,1.8c-.2,.5,-.4,.6,0,1.3c-.5,.3,-.5,1,-.5,1.6c.6,.1,.7,-.1,1,.4c-.3,.1,-.2,-.1,-.6,-.1c-.5,-.1,-.4,0,-.8,.1c-.1,.9,-.3,1.3,-.4,2.1c-1.9,.1,-2.7,2.7,-2.8,4.4c-.1,1.7,-.2,1.9,.3,3.2c.1,.3,.3,.9,.5,1.2c.3,.3,.3,.7,.5,1.1l.4,.6c0,0,.1,0,.1,0c0,0,0,.1,0,.1l.4,.2q.1,.1,.3,.2l-.2,.8c0,0,.1,0,.1,0l.6,.6c.2,-.1,.4,-.2,.6,-.3c-.1,-.2,-.1,-.1,-.1,-.2c-.1,0,-.2,0,-.1,0c0,-.7,.2,-.4,.5,-.2c.1,-.4,.8,-.5,-.2,-1.2c-.3,-.2,-.5,-.1,-.7,-.5c-.1,-.4,0,-.3,.2,-.6l-.5,-.2c.7,-.3,.3,0,.4,-.6c.5,-.2,-.1,.1,.6,.1q.1,0,.1,0q0,-.1,0,-.1c.1,-.6,-.1,-.4,.4,-.8c.3,-.2,.3,-.4,.5,-.8c.1,-.2,0,0,.1,-.3c.1,-.7,-.1,0,.1,-.4c.4,-.8,.7,-.7,1.4,-.9c.2,0,.3,-.1,.6,-.1c.4,0,.2,.1,.4,.1c.4,-.1,.6,-.5,1.9,0c.2,.1,.2,0,.3,.1c-.5,-.5,0,.4,-.1,-.3c-.1,-.5,0,-.1,0,-.3l.4,.1c.5,0,.2,0,.7,.1c.5,.2,.1,-.1,.4,.2c.1,-.5,0,-.1,.3,-.2c.9,0,-.4,.3,.3,.1c.9,-.3,.6,-.1,1.5,.9c.5,.7,.9,.2,1.4,1.2l.3,.8c0,0,-.1,.9,-.1,.9c-.3,.4,-.7,.1,-1,0c-.1,.8,.6,.3,.3,2.3c-.3,.1,-.2,0,-.5,.2q-.2,.1,-.4,.3c-.4,.2,-.7,.2,-1,.5c-.5,-.4,-.4,-.2,-.9,-.4c-.3,-.1,-.3,-.2,-.5,-.2c-.8,0,-1.3,.8,-1.8,-.3c-.4,.1,-.7,.3,-1.2,.2c-.2,0,-.3,0,-.5,-.1l-.3,-.3l-.4,.3c-.3,.2,-.5,.2,-.8,.2h-.3c-.1,-.1,-.1,0,-.1,0c0,0,0,.1,0,.1c0,.2,0,.3,-.2,.5c.2,.3,.5,.5,.9,.5c.3,-.1,.6,-.5,.9,-.2l.2,.3c-.2,0,-.3,.2,-.4,.3c.3,0,.4,0,.5,0c.5,-.2,0,-.1,.3,-.2l.5,.8c.6,-.1,-.1,-.2,.5,.2c.3,.2,.3,-.1,.7,-.1c0,.4,-.1,.4,.2,.6c.4,.3,.4,.1,.5,0c0,.4,-.4,.6,-.4,.6c0,-.1,-.1,0,-.1,0c0,.3,-.1,.5,-.1,.6c0,0,-.1,0,-.1,0v.1c-.5,.2,-.6,.1,-.8,.2l-.3,.5c-.1,-.4,.3,.2,0,-.1c-.4,-.5,-.3,-.1,-.4,-.1c0,0,-.1,.2,-.1,.2h-.1l-.3,.4c-.4,.4,-.3,.1,-.8,.1c-.8,.2,-.1,.2,-.5,.4c-.4,.2,-.4,0,-.7,-.1c-.5,-.1,-.5,0,-.9,0c-.3,0,-.6,-.1,-.9,-.1c-.4,-.1,-.3,0,-.8,-.1c0,-.2,0,-.3,0,-.4c-.1,-.3,.1,0,-.2,-.3c-.3,-.2,-.3,0,-.5,-.2c0,-.2,-.1,-.8,-.1,-.8c0,0,.1,0,.1,-.1v-.3c0,-.4,-1.2,.2,-.9,1.8c.1,.2,.1,.5,-.1,.6c-.3,.4,-.4,1.1,-1,1.2c-.3,0,-1.1,-.6,-1.5,-.7c-1.5,-.7,-3.6,-1.1,-5.3,-.5c-.9,.4,-.4,.6,-1.5,.4c-1,-.2,-1.2,-.1,-1.9,.1c-1.6,.3,-4.2,-.4,-6.2,-.1c-1.1,.2,-2.1,.7,-3.2,1c-.4,.1,-1.3,.3,-1.7,.4c-.4,0,-.7,-.1,-1,0c-1.5,.3,-.7,.3,-2.5,-.3c-.6,-.2,-1.3,-.1,-1.8,-.2c-.5,.7,.3,.2,-1.5,.3l-1.2,.2c-1,.4,.3,.1,-.3,.2c-.8,-.8,-.8,-.6,-.9,.5l-.6,.1l-.1,.8c-.9,.3,-1.3,1.2,-.7,2.1c-.2,.3,0,0,-.2,.3c.2,.8,0,1.3,.1,1.8c.1,.6,.2,0,.3,.8c.1,.4,0,.5,.1,.9c.2,.3,.7,1.1,.9,1.3c.2,.1,1,.6,1.4,.7c2.7,.8,5.2,.4,7.8,.3c.7,-.1,1.4,0,2,-.1c.7,0,1.2,-.2,1.8,-.2c.7,0,1.3,-.1,1.9,-.1c.6,-.1,1.4,.1,2,0c.3,-.1,.5,-.2,.9,-.2c.9,-.1,1.9,.1,2.7,-.3c.3,-.2,.3,-.3,.6,-.5c.4,-.3,.3,-.2,.5,-.6c.4,-.5,.2,-.2,.7,-.4c.4,-.2,.3,-.3,.6,-.4c.9,.1,.6,.4,1.2,.7c.8,.3,3.2,.3,4.4,-.2c.7,-.3,.5,-.3,.9,-.7c.7,-.7,1.1,-.4,1.9,-1.6c.1,-.2,.6,-.8,.8,-.9c.8,-.2,2.3,.6,2.7,1c.5,.4,.5,1.7,.8,2.5c.5,1.5,1.7,2.3,2,3.1c.7,2.4,-1.4,.7,-2.6,1.4c-1.1,.6,-.8,.3,-1.7,1.3c-.8,.9,-1.1,.6,-1.9,.9c-.4,.2,-.4,.4,-.9,.4c-.4,.1,-.9,.1,-1.3,.1c-.6,.1,-.5,.2,-1.1,.3c-1.3,.1,-1.8,.2,-3,1c-.7,.5,-1.8,1.1,-2.6,.2c-.6,-.8,.3,-2.1,-1.1,-1.8c-.4,.1,-.5,.1,-1,.1c.2,.4,.2,.1,.4,.5c-.3,-.1,-.2,-.1,-.4,-.1c-.3,-.1,-.8,-.2,-1.1,-.1c0,.3,0,.2,.2,.4c0,.1,.1,.1,.1,.1v.1c-.8,-.1,-.7,-.3,-.8,.5c-1.7,.2,-2,1.1,-2.8,1.8c-.4,.3,-.5,.5,-.7,.9c-.2,.4,-.1,.6,-.4,.9c-1.1,1.4,-.9,3.1,-.1,4.4c1.1,1.6,2.1,2.6,4.1,2.7c1.5,.1,2.5,-.5,3.8,-1.1c1.1,-.5,1.1,-.7,2,-1.2c.3,-.2,.7,-.3,1.1,-.5c1.7,-.8,1.2,.1,2.5,-.1c.3,-.1,1.1,-.3,1.3,-.4c1,-.6,2.4,-.8,3.4,-1.4c2.3,-1.4,.5,-2.3,4.3,-2.2c.8,0,.7,-.1,1.4,-.2c.8,-.2,3.2,-.5,3.5,-1.3c.4,-.9,-.3,-1.4,-.2,-2.1c.5,-.1,.7,.1,1,.4c.5,.3,.2,.4,.7,.7l1.3,.9c.1,.1,.1,.3,.2,.5c.7,.1,1.7,0,2.4,.4c.4,.1,3.2,-.4,3.8,-.6c.8,-.2,1.9,-.1,2.8,-.3c1,-.2,1.1,-.9,1.6,-1.1c.8,-.2,1.3,.2,2.3,-.3c.6,-.3,.8,-.6,1.2,-.9l1.3,-.6c.5,-.1,.7,0,.8,-.5c.9,-.1,.4,-.2,1.1,-.5c.3,-.2,.7,-.2,1,-.4c.3,-.2,.8,-.5,1.1,-.5c.8,0,1.8,-.1,2.5,-.4c.5,-.2,.2,-.4,1.1,-.5c3.2,-.3,4.1,-2.2,5.8,-3.2l1.6,-1.5c.9,-.8,.4,-1.3,1.8,-1.1c.3,.5,-.2,.1,.5,.4c.3,.1,.4,.2,.6,.3c.4,.4,.8,.5,1.3,.6c.2,.2,.1,.3,.3,.4c.1,0,.3,.1,.4,.2c.6,.3,.5,.6,1.2,.4c.4,-.2,.7,-.5,1,0c-.1,.1,-.1,0,-.3,0c-.4,.1,-.1,-.2,-.3,.2l.6,.2c.6,.4,.4,-.1,1.6,0l.3,-1.1c.2,.3,.1,.4,.4,.6c.2,.2,.2,0,.3,.3c-.3,.1,-.4,0,-.6,.1c0,.2,.1,.4,.1,.5l.3,-.2c.3,.1,.5,.7,.5,-.5l.6,-.1c0,.2,0,0,0,.2c0,.3,.1,.4,.4,.5c.1,.1,0,0,.1,.1l.3,.2c.4,-.1,.1,-.4,.8,-.4c.2,.6,-.3,.5,.5,.5v-.1l-.1,-.5c.4,.2,.2,.2,.7,.2c0,0,.3,0,.3,0c.4,0,.3,.2,.4,.4c.2,.2,.3,0,.9,.7c.5,.6,.5,.5,1.1,.9c1.6,1.1,2.6,-.1,3.4,.8c.8,1,.8,.9,2,1.3c1.4,.4,1,.7,2.5,-.1c.7,-.4,-.1,-.6,1,-.6c-.1,-.3,-.2,-.2,-.2,-.5c.6,0,.1,.1,.5,.2c.3,0,0,-.1,.6,-.1c.2,0,1.1,.1,1.3,.1c.2,-.4,-.1,-.3,.3,-.4c.1,.7,-.3,1.3,.4,1.9c.1,.1,0,0,.2,.2c1.3,.8,2.6,.3,3.5,-.3c1.5,-1,.7,-1.4,1.6,-2.3c.5,-.5,1.5,-1.4,2.2,-1.3c.1,1.8,-2.5,1.5,-1.7,3.5c.5,1.3,1.8,1.9,3.1,2.1c2.2,.5,2.2,-.6,2.7,-.4c.4,.2,.3,.3,.6,.5c.4,.2,.4,0,.7,.4c.9,1.3,.5,.8,1.7,1.5c.6,.3,1.5,.2,2.4,.8c.6,.4,2.3,1,2.8,1.4c1.2,1.1,3.3,1.1,4.7,1.7c1.1,.6,4.6,.3,5.6,-.1c.7,-.2,1.2,-.9,1.7,-1.4q.3,-.3,.5,-.6c.9,-1.3,1.2,-3.5,.4,-5c-.8,-1.5,.6,-.8,-1.7,-2.5c-.3,-.2,-.9,-.9,-1.1,-1c-1.8,-1,-4.4,-.6,-5.6,-1c-.7,-.2,-.6,-.4,-1.6,-.5c-1.3,-.1,-.8,.2,-1.7,.4c-.7,.1,-1.2,-.1,-1.8,-.3c-.8,-.2,-1.1,-.2,-1.9,-.2c-1.2,.2,-.9,-.3,-1.6,-.4c-1.1,-.2,-1,0,-1.5,-.7c-1,-1.6,-3.8,-.6,-5,-.6c0,-1.1,.6,-1.5,.9,-3.4c.2,-1.2,1,-.8,1.5,-1.5c1.8,-1.9,1.6,-3.8,2.5,-4.5c.5,-.3,.9,-.4,1.6,-.2c.1,0,.3,.7,1.2,1.3c1,.6,2.2,1.5,3.2,1.7c.6,.2,1.5,.5,2.1,.4c.9,0,1.1,-.4,1.6,-.8c.9,-.8,.7,-.4,1.7,-.3c.7,.1,1.4,.1,2.2,.2c3.3,.5,2.3,-.4,4.3,-.2c2.4,.3,2.1,.3,4.2,1c.4,.1,1.6,.2,2.1,.3c3.5,.4,5.4,1,7.8,-1.1c.3,-.2,.4,-.3,.7,-.6c.7,-.6,1.1,-1.5,1.3,-2.4c.6,-2.7,1.2,-3.5,-.2,-6c-.3,-.5,-.8,-.9,-1.2,-1.2c-1,-.8,-2.8,-1,-4,-.9c-1.1,0,-1.2,.1,-2.1,.2c-.6,.1,-1.4,.3,-2,.3c-.9,0,-1.4,-.1,-2.4,0c-.6,.1,-1.1,.4,-1.8,.4c-.8,.1,-1.4,-.1,-2.2,.1c-1,.3,-2.1,.2,-3.1,.4c-.4,0,-.5,.2,-.9,.2c-.4,0,-.8,0,-1.1,0c-.4,0,-.7,.1,-1.1,.1c-.3,-.1,.1,-.5,-1.4,-.5c-.6,0,-1.2,-.1,-1.8,-.1c-.2,-.6,0,-.5,.1,-.7l-.2,-.5c0,-.3,-.2,-1.2,-.2,-1.5c.2,0,.1,0,.3,-.1c.3,-.1,2,-.1,2.2,.1c.3,.2,.2,.4,.3,.6l.5,.1c.1,-.2,.2,-.6,.3,-.6c.4,-.3,.3,0,.8,-.2c.7,-.2,1.9,-.9,2.6,-.9c.2,0,.7,.1,.9,.1c.6,.1,.1,0,.5,.2c.7,-.5,1.4,-.6,2.3,-.6c.7,0,1.7,-.2,2.5,-.2c.5,-.1,.8,-.2,1.2,-.3c.6,-.1,1.2,-.1,1.8,-.2c.2,-.1,.3,-.2,.5,-.2c.3,-.1,.9,-.2,1.2,-.2c.8,-.1,1.9,.2,2.7,0c.3,-.1,.1,-.2,.5,-.2l1.8,-.2c1.1,0,1.6,-.2,2.5,-.3c.4,-.1,.8,-.1,1.2,-.2c.5,-.2,.4,-.3,1,-.3c.8,-.1,.7,-.2,1.2,-.4c1.1,-.4,1.6,-1,2.2,-2.1c.5,-.9,.4,-1.5,.6,-2.5c0,-.4,.2,-1,.2,-1.3c-.1,-1.7,-1.1,-4.2,-2.1,-5.1c-.7,-.5,-2.7,-.8,-3.6,-.9c-.6,0,-.7,.1,-1.2,.2c-2.7,0,-2.8,.8,-4.6,1c-.9,.2,-1.2,.6,-2.1,.6c-.9,.1,-1.7,.2,-2.6,.2c-1.2,0,-3.7,.2,-5,.5c-.8,.2,-1.7,.1,-2.5,.2c-.8,.1,-.6,.2,-1.1,.4c-1.1,.4,-2.6,0,-3.8,-.2c-2.8,-.6,-1.6,.9,-6.2,-.4c-.4,-.1,-.6,-.3,-.9,-.5c-1.1,-.7,-.9,-.7,-.8,-2.1c0,-.8,-.3,-1.5,-.9,-2c-.5,-.5,-.1,-.3,-.9,-.6c-.4,-.1,-.6,-.3,-.8,-.6c-.3,-.4,-.3,-.5,-.7,-.8c-.8,-.4,-.5,-.4,-.7,-.7l-.9,-.1c.2,-.4,.1,-.2,.5,-.4c-.1,-.5,-.2,0,-.3,-.4c0,-.3,.2,-.1,.2,-.5l-.5,-.4c0,0,-.1,0,-.1,0c-.3,-.4,-.7,-.8,-1.2,-.9q-.1,0,-.1,0q-.1,0,-.1,0h-.5c-.2,.3,.1,.1,-.3,.4c-.7,-.1,0,-.2,-.6,-.2c-.8,0,-.6,-.2,-1.3,-.5c-1.3,-.7,0,-2.2,-3.9,-4c-.6,-.2,-.8,-.8,-2,-1.6c-.6,-.3,-.5,-.3,-.9,-.9c-.2,-.3,-.7,-.6,-.7,-1c-.1,-.3,.1,-1.1,.1,-1.7c0,-.3,0,-1.3,.1,-1.6c.1,-.6,1.1,-1.6,1.5,-1.9c.5,-.4,.6,-.5,1,-.9c.2,-.3,.6,-.6,.8,-.9c.8,-.9,1.5,-1.1,2.5,-2.1c.2,-.1,.3,-.2,.5,-.3c.2,-.2,.2,-.3,.4,-.5c.4,-.3,.7,-.4,1,-.7c.1,-.2,0,-.1,.2,-.3c.4,-.5,.7,-.6,1.1,-1.1c.7,-1,1.4,-2.4,1.7,-3.8c.3,-1.2,1.2,-3.2,.6,-4.5c0,-.2,-.6,-1,-.7,-1.1c-.2,-.3,-.7,-.5,-1,-.7c-1.9,-1,-3.8,-.1,-5.4,.8c-.8,.5,-.6,.4,-1.1,.8l-1,.7c-.5,.3,-1.1,.6,-1.7,.9c-.8,.4,-.9,.7,-1.5,1.1c-.7,.6,-1,1.1,-2,1.5c-.9,.3,-1.5,.6,-2,1.4c-.4,.6,-.5,.5,-.9,.8c-.2,.2,-.3,.3,-.5,.5q-.2,.2,-.5,.4c-.5,.3,-.2,.4,-.9,.8c-.9,.5,-.9,1.3,-1.8,1.7c-.5,.2,-.7,.4,-1.1,.7c-.3,.3,-.7,.4,-1,.6c-1.1,.8,-.8,.8,-2,1.5c-.9,.6,-1.7,1.8,-2.8,2.6c-.5,.3,-.5,.4,-1,.7c-.4,.2,-.5,.6,-.9,.9c-.2,.2,-.3,.2,-.6,.4c-.5,.3,-.7,.8,-1.4,1c-1.4,.5,-1,.9,-1.8,1.8c-.7,.7,-1.1,1.7,-1.6,2c-.3,.2,-.6,.6,-1,.7Z" class="g0_1"/>
    <path d="M254.8,383.4l.4,.6c0,0,.1,0,.1,0c0,0,0,.1,0,.1l.4,.2q.1,.1,.3,.2l-.2,.8c0,0,.1,0,.1,0l.6,.6c.2,-.1,.4,-.2,.6,-.3c-.1,-.2,-.1,-.1,-.1,-.2c-.1,0,-.2,0,-.1,0c0,-.7,.2,-.4,.5,-.2c.1,-.4,.8,-.5,-.2,-1.2c-.3,-.2,-.5,-.1,-.7,-.5c-.1,-.4,0,-.3,.2,-.6l-.5,-.2c.7,-.3,.3,0,.4,-.6c.5,-.2,-.1,.1,.6,.1q.1,0,.1,0q0,-.1,0,-.1c.1,-.6,-.1,-.4,.4,-.8c.3,-.2,.3,-.4,.5,-.8c.1,-.2,0,0,.1,-.3c.1,-.7,-.1,0,.1,-.4c.4,-.8,.7,-.7,1.4,-.9c.2,0,.3,-.1,.6,-.1c.4,0,.2,.1,.4,.1c.4,-.1,.6,-.5,1.9,0c.2,.1,.2,0,.3,.1c-.5,-.5,0,.4,-.1,-.3c-.1,-.5,0,-.1,0,-.3l.4,.1c.5,0,.2,0,.7,.1c.5,.2,.1,-.1,.4,.2c.1,-.5,0,-.1,.3,-.2c.9,0,-.4,.3,.3,.1c.9,-.3,.6,-.1,1.5,.9c.5,.7,.9,.2,1.4,1.2l.3,.8c0,0,-.1,.9,-.1,.9c-.3,.4,-.7,.1,-1,0c-.1,.8,.6,.3,.3,2.3c-.3,.1,-.2,0,-.5,.2q-.2,.1,-.4,.3c-.4,.2,-.7,.2,-1,.5c-.5,-.4,-.4,-.2,-.9,-.4c-.3,-.1,-.3,-.2,-.5,-.2c-.8,0,-1.3,.8,-1.8,-.3c-.4,.1,-.7,.3,-1.2,.2c-.2,0,-.3,0,-.5,-.1l-.3,-.3l-.4,.3c-.3,.2,-.5,.2,-.8,.2h-.3c-.1,-.1,-.1,0,-.1,0c0,0,0,.1,0,.1c0,.2,0,.3,-.2,.5c.2,.3,.5,.5,.9,.5c.3,-.1,.6,-.5,.9,-.2l.2,.3c-.2,0,-.3,.2,-.4,.3c.3,0,.4,0,.5,0c.5,-.2,0,-.1,.3,-.2l.5,.8c.6,-.1,-.1,-.2,.5,.2c.3,.2,.3,-.1,.7,-.1c0,.4,-.1,.4,.2,.6c.4,.3,.4,.1,.5,0c0,.4,-.4,.6,-.4,.6c0,-.1,-.1,0,-.1,0c0,.3,-.1,.5,-.1,.6c0,0,-.1,0,-.1,0v.1c-.5,.2,-.6,.1,-.8,.2l-.3,.5c-.1,-.4,.3,.2,0,-.1c-.4,-.5,-.3,-.1,-.4,-.1c0,0,-.1,.2,-.1,.2h-.1l-.3,.4c-.4,.4,-.3,.1,-.8,.1c-.8,.2,-.1,.2,-.5,.4c-.4,.2,-.4,0,-.7,-.1c-.5,-.1,-.5,0,-.9,0c-.3,0,-.6,-.1,-.9,-.1c-.4,-.1,-.3,0,-.8,-.1c0,-.2,0,-.3,0,-.4c-.1,-.3,.1,0,-.2,-.3c-.3,-.2,-.3,0,-.5,-.2c0,-.2,-.1,-.8,-.1,-.8c0,0,.1,0,.1,-.1v-.3c0,-.4,-1.2,.2,-.9,1.8c.1,.2,.1,.5,-.1,.6c.1,-1,-.6,-.3,-.3,-2.6q.1,-.1,.2,-.1l.2,-.1c0,0,.1,0,.1,0l-.4,-.3c.4,-.3,.3,-.3,.9,-.3c0,0,-.1,-.1,-.1,-.1V387c0,-.3,-.1,-.1,-.1,-.6c-.1,-.5,-.1,-1,.2,-1.4l-.2,-.7c-.1,-.3,0,-.5,0,-.9Zm47.6,-31.1c.3,.6,.1,1.4,0,2.3c-.2,1.1,-.4,1,-.8,1.8c-.8,1.5,-.4,.6,-1,1.5c-.2,.3,-.4,.5,-.6,.7c-.6,.5,-.7,-.1,-.9,.5c-.3,.9,.1,.9,-1.3,.8c-.2,.2,-.2,.3,-.3,.5c-.7,0,-1.7,-.3,-2.2,-.6c-.7,-.5,-1.6,-2.5,-1.8,-3.4q-.3,-1,-1.1,-1.4l.3,-.6c-.4,-.3,-.3,-.4,-.8,-.7c-.3,-.2,-.5,-.3,-.7,-.7c-.5,-.8,-.9,-1,-1.3,-1.7c-.2,-.3,-.3,-.6,-.6,-.9c-.8,-1.2,-1.9,-1.9,-2.1,-2.3c-.3,0,-1,.1,-1.2,.1c-.2,.7,-.1,.6,.1,1.1c-.2,.2,-.2,0,-.4,.5c.1,.1,.2,.1,.3,.3h-.8v-.3c0,0,0,-.1,0,-.1v-.2c0,0,-.2,0,-.3,0h-.2v.1l.1,.5c-.4,-.1,-.2,-.2,-.7,-.2c.2,-.3,.1,-.1,.2,-.4c-.4,-.3,-.2,-.3,-.6,-.4c0,0,.1,-.1,.2,-.1c.5,-.4,-.7,-.5,-1,-.5c.1,-.2,.2,-.1,.3,-.3c-.1,-.4,-.1,-.1,-.1,-.4h.8c-.2,-.4,.1,-.4,-.7,-.3c-.7,.1,-.5,-.1,-1,.3c-.2,.1,-.4,.1,-.7,.1c0,1.1,-.3,.1,-.2,1.1c.9,-.4,.9,-.1,.9,.2c-.2,.1,-.3,-.1,-.8,0l.2,1.7c0,0,0,.1,0,.1c.2,-.2,.1,-.1,.2,-.2c0,-.1,.1,-.1,.1,-.2v-.1c.5,.7,.4,.5,-.2,.8c.1,.5,0,.1,.3,.5c-.3,.3,-.6,.3,-.2,.5c.5,.2,.5,-.1,.8,.3c-.3,.1,-.4,0,-.7,0c.1,1.2,.2,.5,.6,1l.4,.5c.5,.5,-.1,.2,.5,1.2c-.4,.3,-.1,.2,-.4,.7c-.2,.3,-.1,.1,-.3,.7c-1.3,0,-.7,0,-1.6,-.1c-.5,.5,-.5,.6,-.6,1.4c-.1,.9,-.5,.7,-.8,1.1c-.2,.2,-.1,.2,-.5,.5c-.6,.6,-.5,1.4,-.6,2.3c.2,-.1,.4,-.1,.8,0c-.1,.3,0,0,-.4,.2v.6l-.4,.2c.1,.4,.1,.5,.2,.9c-.5,.9,.4,-.6,-.2,.2c-.1,.1,-.2,.2,-.1,.6c0,.1,.1,.1,.1,.3c0,0,-.1,.3,-.2,.4q.1,0,.1,0l.4,.2l-.3,.3c0,0,0,.1,0,.1c0,.1,0,.2,.1,.2c.3,.7,-.2,-.3,.1,.2c-1.1,-.1,0,-.4,-.8,-.7c-.2,.2,-.1,.2,-.1,.4l-.1,.2l-.5,-.1c0,-.4,0,-.1,.1,-.3c0,-.1,0,-.2,.1,-.3c.1,-.2,.2,-.4,.1,-.6c-.4,-.2,-.6,0,-1,0c0,-.4,.1,-.2,.4,-.3l-.4,-.7c-.5,.1,-.3,0,-.7,.3c-.3,.3,-.2,0,-.3,.7c-.7,-.1,0,-.2,-.9,-.1c-.8,.1,-1.7,-.2,-2.9,0q0,-.1,0,-.1l-.1,-.2c-.1,-.2,0,-.1,-.1,-.3c-.2,.2,-.2,.4,-.3,.7c.5,-.2,.2,0,.7,.1c.4,.1,.2,-.1,.5,0c.3,0,.2,-.1,.3,.2c-.2,.3,.1,.1,-.3,.2c-.6,.1,-.7,-.2,-.6,.6c-.2,-.1,-.3,-.2,-.3,-.2c.1,.7,.7,.2,1.1,.5c-.3,.2,-.8,.3,-1.2,.1c-.4,-.3,.3,-.2,-.3,-.4q0,.1,0,.1c0,0,0,.1,0,.1c-.1,.2,0,-.3,-.1,.1c-.1,.3,0,.4,0,.7c-.9,0,-.5,0,-1.1,.2c-.2,-.6,.1,-.6,-.5,-.8c-.2,-.1,-.2,0,-.4,0c-.3,-.1,0,.1,-.3,-.1c.4,-.3,.4,0,.6,-.4c-.5,-.2,-1.2,-.1,-.6,-1.1c-.5,-.4,-.3,-.6,-.7,-1c-.2,-.2,0,0,-.1,-.2c-.2,-.2,-.3,-.2,-.6,-.4c-.5,-.3,-.9,-.6,-1.6,-.7c-.1,-.1,-.1,-.3,-.1,-.4c-1.8,-.1,-.4,-.3,-1.9,-.6c-.4,0,-.3,-.1,-.9,-.2c-.7,-.1,-1.5,-1.2,-2.6,-.5c-.5,.4,-.8,.6,-.8,1.5c-.3,.1,.4,-.1,-.1,0l-.3,.9l.3,.1c.2,0,-.1,-.2,.2,0c-.3,.4,-.2,.1,-.2,.7c-.6,-.1,-.2,-.1,-.6,.3c-.2,.2,-.4,.2,-.4,.5c-.3,1.5,-.2,.7,-.6,1.5c-.2,.4,-.1,1.5,-.2,1.8c-.2,.5,-.4,.6,0,1.3c-.5,.3,-.5,1,-.5,1.6c.6,.1,.7,-.1,1,.4c-.3,.1,-.2,-.1,-.6,-.1c-.5,-.1,-.4,0,-.8,.1c-.1,.9,-.3,1.3,-.4,2.1c-1.9,.1,-2.7,2.7,-2.8,4.4c-.1,1.7,-.2,1.9,.3,3.2c.1,.3,.3,.9,.5,1.2c.3,.3,.3,.7,.5,1.1l.4,.6c0,0,.1,0,.1,0c0,0,0,.1,0,.1l.4,.2q.1,.1,.3,.2l-.2,.8c0,0,.1,0,.1,0l.6,.6c.2,-.1,.4,-.2,.6,-.3c-.1,-.2,-.1,-.1,-.1,-.2c-.1,0,-.2,0,-.1,0c0,-.7,.2,-.4,.5,-.2c.1,-.4,.8,-.5,-.2,-1.2c-.3,-.2,-.5,-.1,-.7,-.5c-.1,-.4,0,-.3,.2,-.6l-.5,-.2c.7,-.3,.3,0,.4,-.6c.5,-.2,-.1,.1,.6,.1q.1,0,.1,0q0,-.1,0,-.1c.1,-.6,-.1,-.4,.4,-.8c.3,-.2,.3,-.4,.5,-.8c.1,-.2,0,0,.1,-.3c.1,-.7,-.1,0,.1,-.4c.4,-.8,.7,-.7,1.4,-.9c.2,0,.3,-.1,.6,-.1c.4,0,.2,.1,.4,.1c.4,-.1,.6,-.5,1.9,0c.2,.1,.2,0,.3,.1c-.5,-.5,0,.4,-.1,-.3c-.1,-.5,0,-.1,0,-.3l.4,.1c.5,0,.2,0,.7,.1c.5,.2,.1,-.1,.4,.2c.1,-.5,0,-.1,.3,-.2c.9,0,-.4,.3,.3,.1c.9,-.3,.6,-.1,1.5,.9c.5,.7,.9,.2,1.4,1.2l.3,.8c0,0,-.1,.9,-.1,.9c-.3,.4,-.7,.1,-1,0c-.1,.8,.6,.3,.3,2.3c-.3,.1,-.2,0,-.5,.2q-.2,.1,-.4,.3c-.4,.2,-.7,.2,-1,.5c-.5,-.4,-.4,-.2,-.9,-.4c-.3,-.1,-.3,-.2,-.5,-.2c-.8,0,-1.3,.8,-1.8,-.3c-.4,.1,-.7,.3,-1.2,.2c-.2,0,-.3,0,-.5,-.1l-.3,-.3l-.4,.3c-.3,.2,-.5,.2,-.8,.2h-.3c-.1,-.1,-.1,0,-.1,0c0,0,0,.1,0,.1c0,.2,0,.3,-.2,.5c.2,.3,.5,.5,.9,.5c.3,-.1,.6,-.5,.9,-.2l.2,.3c-.2,0,-.3,.2,-.4,.3c.3,0,.4,0,.5,0c.5,-.2,0,-.1,.3,-.2l.5,.8c.6,-.1,-.1,-.2,.5,.2c.3,.2,.3,-.1,.7,-.1c0,.4,-.1,.4,.2,.6c.4,.3,.4,.1,.5,0c0,.4,-.4,.6,-.4,.6c0,-.1,-.1,0,-.1,0c0,.3,-.1,.5,-.1,.6c0,0,-.1,0,-.1,0v.1c-.5,.2,-.6,.1,-.8,.2l-.3,.5c-.1,-.4,.3,.2,0,-.1c-.4,-.5,-.3,-.1,-.4,-.1c0,0,-.1,.2,-.1,.2h-.1l-.3,.4c-.4,.4,-.3,.1,-.8,.1c-.8,.2,-.1,.2,-.5,.4c-.4,.2,-.4,0,-.7,-.1c-.5,-.1,-.5,0,-.9,0c-.3,0,-.6,-.1,-.9,-.1c-.4,-.1,-.3,0,-.8,-.1c0,-.2,0,-.3,0,-.4c-.1,-.3,.1,0,-.2,-.3c-.3,-.2,-.3,0,-.5,-.2c0,-.2,-.1,-.8,-.1,-.8c0,0,.1,0,.1,-.1v-.3c0,-.4,-1.2,.2,-.9,1.8c.1,.2,.1,.5,-.1,.6c-.3,.4,-.4,1.1,-1,1.2c-.3,0,-1.1,-.6,-1.5,-.7c-1.5,-.7,-3.6,-1.1,-5.3,-.5c-.9,.4,-.4,.6,-1.5,.4c-1,-.2,-1.2,-.1,-1.9,.1c-1.6,.3,-4.2,-.4,-6.2,-.1c-1.1,.2,-2.1,.7,-3.2,1c-.4,.1,-1.3,.3,-1.7,.4c-.4,0,-.7,-.1,-1,0c-1.5,.3,-.7,.3,-2.5,-.3c-.6,-.2,-1.3,-.1,-1.8,-.2c-.5,.7,.3,.2,-1.5,.3l-1.2,.2c-1,.4,.3,.1,-.3,.2c-.8,-.8,-.8,-.6,-.9,.5l-.6,.1l-.1,.8c-.9,.3,-1.3,1.2,-.7,2.1c-.2,.3,0,0,-.2,.3c.2,.8,0,1.3,.1,1.8c.1,.6,.2,0,.3,.8c.1,.4,0,.5,.1,.9c.2,.3,.7,1.1,.9,1.3c.2,.1,1,.6,1.4,.7c2.7,.8,5.2,.4,7.8,.3c.7,-.1,1.4,0,2,-.1c.7,0,1.2,-.2,1.8,-.2c.7,0,1.3,-.1,1.9,-.1c.6,-.1,1.4,.1,2,0c.3,-.1,.5,-.2,.9,-.2c.9,-.1,1.9,.1,2.7,-.3c.3,-.2,.3,-.3,.6,-.5c.4,-.3,.3,-.2,.5,-.6c.4,-.5,.2,-.2,.7,-.4c.4,-.2,.3,-.3,.6,-.4c.9,.1,.6,.4,1.2,.7c.8,.3,3.2,.3,4.4,-.2c.7,-.3,.5,-.3,.9,-.7c.7,-.7,1.1,-.4,1.9,-1.6c.1,-.2,.6,-.8,.8,-.9c.8,-.2,2.3,.6,2.7,1c.5,.4,.5,1.7,.8,2.5c.5,1.5,1.7,2.3,2,3.1c.7,2.4,-1.4,.7,-2.6,1.4c-1.1,.6,-.8,.3,-1.7,1.3c-.8,.9,-1.1,.6,-1.9,.9c-.4,.2,-.4,.4,-.9,.4c-.4,.1,-.9,.1,-1.3,.1c-.6,.1,-.5,.2,-1.1,.3c-1.3,.1,-1.8,.2,-3,1c-.7,.5,-1.8,1.1,-2.6,.2c-.6,-.8,.3,-2.1,-1.1,-1.8c-.4,.1,-.5,.1,-1,.1c.2,.4,.2,.1,.4,.5c-.3,-.1,-.2,-.1,-.4,-.1c-.3,-.1,-.8,-.2,-1.1,-.1c0,.3,0,.2,.2,.4c0,.1,.1,.1,.1,.1v.1c-.8,-.1,-.7,-.3,-.8,.5c-1.7,.2,-2,1.1,-2.8,1.8c-.4,.3,-.5,.5,-.7,.9c-.2,.4,-.1,.6,-.4,.9c-1.1,1.4,-.9,3.1,-.1,4.4c1.1,1.6,2.1,2.6,4.1,2.7c1.5,.1,2.5,-.5,3.8,-1.1c1.1,-.5,1.1,-.7,2,-1.2c.3,-.2,.7,-.3,1.1,-.5c1.7,-.8,1.2,.1,2.5,-.1c.3,-.1,1.1,-.3,1.3,-.4c1,-.6,2.4,-.8,3.4,-1.4c2.3,-1.4,.5,-2.3,4.3,-2.2c.8,0,.7,-.1,1.4,-.2c.8,-.2,3.2,-.5,3.5,-1.3c.4,-.9,-.3,-1.4,-.2,-2.1c.5,-.1,.7,.1,1,.4c.5,.3,.2,.4,.7,.7l1.3,.9c.1,.1,.1,.3,.2,.5c.7,.1,1.7,0,2.4,.4c.4,.1,3.2,-.4,3.8,-.6c.8,-.2,1.9,-.1,2.8,-.3c1,-.2,1.1,-.9,1.6,-1.1c.8,-.2,1.3,.2,2.3,-.3c.6,-.3,.8,-.6,1.2,-.9l1.3,-.6c.5,-.1,.7,0,.8,-.5c.9,-.1,.4,-.2,1.1,-.5c.3,-.2,.7,-.2,1,-.4c.3,-.2,.8,-.5,1.1,-.5c.8,0,1.8,-.1,2.5,-.4c.5,-.2,.2,-.4,1.1,-.5c3.2,-.3,4.1,-2.2,5.8,-3.2l1.6,-1.5c.9,-.8,.4,-1.3,1.8,-1.1c.3,.5,-.2,.1,.5,.4c.3,.1,.4,.2,.6,.3c.4,.4,.8,.5,1.3,.6c.2,.2,.1,.3,.3,.4c.1,0,.3,.1,.4,.2c.6,.3,.5,.6,1.2,.4c.4,-.2,.7,-.5,1,0c-.1,.1,-.1,0,-.3,0c-.4,.1,-.1,-.2,-.3,.2l.6,.2c.6,.4,.4,-.1,1.6,0l.3,-1.1c.2,.3,.1,.4,.4,.6c.2,.2,.2,0,.3,.3c-.3,.1,-.4,0,-.6,.1c0,.2,.1,.4,.1,.5l.3,-.2c.3,.1,.5,.7,.5,-.5l.6,-.1c0,.2,0,0,0,.2c0,.3,.1,.4,.4,.5c.1,.1,0,0,.1,.1l.3,.2c.4,-.1,.1,-.4,.8,-.4c.2,.6,-.3,.5,.5,.5v-.1l-.1,-.5c.4,.2,.2,.2,.7,.2c0,0,.3,0,.3,0c.4,0,.3,.2,.4,.4c.2,.2,.3,0,.9,.7c.5,.6,.5,.5,1.1,.9c1.6,1.1,2.6,-.1,3.4,.8c.8,1,.8,.9,2,1.3c1.4,.4,1,.7,2.5,-.1c.7,-.4,-.1,-.6,1,-.6c-.1,-.3,-.2,-.2,-.2,-.5c.6,0,.1,.1,.5,.2c.3,0,0,-.1,.6,-.1c.2,0,1.1,.1,1.3,.1c.2,-.4,-.1,-.3,.3,-.4c.1,.7,-.3,1.3,.4,1.9c.1,.1,0,0,.2,.2c1.3,.8,2.6,.3,3.5,-.3c1.5,-1,.7,-1.4,1.6,-2.3c.5,-.5,1.5,-1.4,2.2,-1.3c.1,1.8,-2.5,1.5,-1.7,3.5c.5,1.3,1.8,1.9,3.1,2.1c2.2,.5,2.2,-.6,2.7,-.4c.4,.2,.3,.3,.6,.5c.4,.2,.4,0,.7,.4c.9,1.3,.5,.8,1.7,1.5c.6,.3,1.5,.2,2.4,.8c.6,.4,2.3,1,2.8,1.4c1.2,1.1,3.3,1.1,4.7,1.7c1.1,.6,4.6,.3,5.6,-.1c.7,-.2,1.2,-.9,1.7,-1.4q.3,-.3,.5,-.6c.9,-1.3,1.2,-3.5,.4,-5c-.8,-1.5,.6,-.8,-1.7,-2.5c-.3,-.2,-.9,-.9,-1.1,-1c-1.8,-1,-4.4,-.6,-5.6,-1c-.7,-.2,-.6,-.4,-1.6,-.5c-1.3,-.1,-.8,.2,-1.7,.4c-.7,.1,-1.2,-.1,-1.8,-.3c-.8,-.2,-1.1,-.2,-1.9,-.2c-1.2,.2,-.9,-.3,-1.6,-.4c-1.1,-.2,-1,0,-1.5,-.7c-1,-1.6,-3.8,-.6,-5,-.6c0,-1.1,.6,-1.5,.9,-3.4c.2,-1.2,1,-.8,1.5,-1.5c1.8,-1.9,1.6,-3.8,2.5,-4.5c.5,-.3,.9,-.4,1.6,-.2c.1,0,.3,.7,1.2,1.3c1,.6,2.2,1.5,3.2,1.7c.6,.2,1.5,.5,2.1,.4c.9,0,1.1,-.4,1.6,-.8c.9,-.8,.7,-.4,1.7,-.3c.7,.1,1.4,.1,2.2,.2c3.3,.5,2.3,-.4,4.3,-.2c2.4,.3,2.1,.3,4.2,1c.4,.1,1.6,.2,2.1,.3c3.5,.4,5.4,1,7.8,-1.1c.3,-.2,.4,-.3,.7,-.6c.7,-.6,1.1,-1.5,1.3,-2.4c.6,-2.7,1.2,-3.5,-.2,-6c-.3,-.5,-.8,-.9,-1.2,-1.2c-1,-.8,-2.8,-1,-4,-.9c-1.1,0,-1.2,.1,-2.1,.2c-.6,.1,-1.4,.3,-2,.3c-.9,0,-1.4,-.1,-2.4,0c-.6,.1,-1.1,.4,-1.8,.4c-.8,.1,-1.4,-.1,-2.2,.1c-1,.3,-2.1,.2,-3.1,.4c-.4,0,-.5,.2,-.9,.2c-.4,0,-.8,0,-1.1,0c-.4,0,-.7,.1,-1.1,.1c-.3,-.1,.1,-.5,-1.4,-.5c-.6,0,-1.2,-.1,-1.8,-.1c-.2,-.6,0,-.5,.1,-.7l-.2,-.5c0,-.3,-.2,-1.2,-.2,-1.5c.2,0,.1,0,.3,-.1c.3,-.1,2,-.1,2.2,.1c.3,.2,.2,.4,.3,.6l.5,.1c.1,-.2,.2,-.6,.3,-.6c.4,-.3,.3,0,.8,-.2c.7,-.2,1.9,-.9,2.6,-.9c.2,0,.7,.1,.9,.1c.6,.1,.1,0,.5,.2c.7,-.5,1.4,-.6,2.3,-.6c.7,0,1.7,-.2,2.5,-.2c.5,-.1,.8,-.2,1.2,-.3c.6,-.1,1.2,-.1,1.8,-.2c.2,-.1,.3,-.2,.5,-.2c.3,-.1,.9,-.2,1.2,-.2c.8,-.1,1.9,.2,2.7,0c.3,-.1,.1,-.2,.5,-.2l1.8,-.2c1.1,0,1.6,-.2,2.5,-.3c.4,-.1,.8,-.1,1.2,-.2c.5,-.2,.4,-.3,1,-.3c.8,-.1,.7,-.2,1.2,-.4c1.1,-.4,1.6,-1,2.2,-2.1c.5,-.9,.4,-1.5,.6,-2.5c0,-.4,.2,-1,.2,-1.3c-.1,-1.7,-1.1,-4.2,-2.1,-5.1c-.7,-.5,-2.7,-.8,-3.6,-.9c-.6,0,-.7,.1,-1.2,.2c-2.7,0,-2.8,.8,-4.6,1c-.9,.2,-1.2,.6,-2.1,.6c-.9,.1,-1.7,.2,-2.6,.2c-1.2,0,-3.7,.2,-5,.5c-.8,.2,-1.7,.1,-2.5,.2c-.8,.1,-.6,.2,-1.1,.4c-1.1,.4,-2.6,0,-3.8,-.2c-2.8,-.6,-1.6,.9,-6.2,-.4c-.4,-.1,-.6,-.3,-.9,-.5c-1.1,-.7,-.9,-.7,-.8,-2.1c0,-.8,-.3,-1.5,-.9,-2c-.5,-.5,-.1,-.3,-.9,-.6c-.4,-.1,-.6,-.3,-.8,-.6c-.3,-.4,-.3,-.5,-.7,-.8c-.8,-.4,-.5,-.4,-.7,-.7l-.9,-.1c.2,-.4,.1,-.2,.5,-.4c-.1,-.5,-.2,0,-.3,-.4c0,-.3,.2,-.1,.2,-.5l-.5,-.4c0,0,-.1,0,-.1,0c-.3,-.4,-.7,-.8,-1.2,-.9q-.1,0,-.1,0q-.1,0,-.1,0h-.5c-.2,.3,.1,.1,-.3,.4c-.7,-.1,0,-.2,-.6,-.2c-.8,0,-.6,-.2,-1.3,-.5c-1.3,-.7,0,-2.2,-3.9,-4c-.6,-.2,-.8,-.8,-2,-1.6c-.6,-.3,-.5,-.3,-.9,-.9c-.2,-.3,-.7,-.6,-.7,-1c-.1,-.3,.1,-1.1,.1,-1.7c0,-.3,0,-1.3,.1,-1.6c.1,-.6,1.1,-1.6,1.5,-1.9c.5,-.4,.6,-.5,1,-.9c.2,-.3,.6,-.6,.8,-.9c.8,-.9,1.5,-1.1,2.5,-2.1c.2,-.1,.3,-.2,.5,-.3c.2,-.2,.2,-.3,.4,-.5c.4,-.3,.7,-.4,1,-.7c.1,-.2,0,-.1,.2,-.3c.4,-.5,.7,-.6,1.1,-1.1c.7,-1,1.4,-2.4,1.7,-3.8c.3,-1.2,1.2,-3.2,.6,-4.5c0,-.2,-.6,-1,-.7,-1.1c-.2,-.3,-.7,-.5,-1,-.7c-1.9,-1,-3.8,-.1,-5.4,.8c-.8,.5,-.6,.4,-1.1,.8l-1,.7c-.5,.3,-1.1,.6,-1.7,.9c-.8,.4,-.9,.7,-1.5,1.1c-.7,.6,-1,1.1,-2,1.5c-.9,.3,-1.5,.6,-2,1.4c-.4,.6,-.5,.5,-.9,.8c-.2,.2,-.3,.3,-.5,.5q-.2,.2,-.5,.4c-.5,.3,-.2,.4,-.9,.8c-.9,.5,-.9,1.3,-1.8,1.7c-.5,.2,-.7,.4,-1.1,.7c-.3,.3,-.7,.4,-1,.6c-1.1,.8,-.8,.8,-2,1.5c-.9,.6,-1.7,1.8,-2.8,2.6c-.5,.3,-.5,.4,-1,.7c-.4,.2,-.5,.6,-.9,.9c-.2,.2,-.3,.2,-.6,.4c-.5,.3,-.7,.8,-1.4,1c-1.4,.5,-1,.9,-1.8,1.8c-.7,.7,-1.1,1.7,-1.6,2c-.3,.2,-.6,.6,-1,.7Z" class="g1_1"/>
    <path fill-rule="evenodd" d="M239.5,383.7c.6,0,.5,.3,1.2,.4c.3,.1,1,.2,1.2,.4c.4,.3,-.2,.6,.6,.8c.4,.1,.9,.2,1.3,.3c.6,.2,2.1,.4,2.7,.4l1.2,-.3c.5,-.1,.6,-.3,.9,-.6c.6,-.5,.4,.1,.6,-1c0,-.1,.2,-.5,.2,-.6l.4,-.3c.5,-.4,.6,-.3,.9,-.6c1,-.6,1.7,-1.2,1.8,-2.9c0,-.9,-.4,-1.6,-.7,-2.3c-.7,-1.4,-1.9,-2.2,-3.4,-2.8c-1.5,-.6,-3.7,-.5,-5.4,-.4c-1.6,.2,-4.3,-1.1,-8,.1c-.7,.3,-1.2,.8,-1.3,1.8c-.3,.1,-.9,-.1,-1.3,-.1c-1.2,0,-.8,.2,-1.3,.3c-.9,.3,-.3,-.3,-1.1,.6l-1,.6c-.1,-.4,-.1,-.7,-.5,-1c-.7,-.6,-1.5,-.3,-2,.2c-.6,.8,-.1,.7,-.5,.9c-.5,-.2,-.1,-.2,-.3,-.7c-.9,-.1,-.7,.7,-.8,1.5c-.6,-.1,-.8,-.4,-1.5,-.1c-.7,.3,-1.6,0,-2.5,.2l-2.4,-.1c-.2,.3,0,.2,-.2,.5c-.9,-.1,-1.8,-.4,-2.4,0c-.5,1,-.3,2.1,-.4,3l.5,.2c-.2,.3,0,.1,-.3,.3c.1,.3,.1,.1,.2,.5c-.4,.3,-.2,-.1,-.5,.4c-.5,.8,-.3,1.4,.4,1.9c1.4,1,1.4,.7,3.2,.9c1.2,.2,2.4,.4,3.7,.3c1.3,-.1,4,-.8,5.2,-1.4c1.4,-.7,1,.2,2.2,-.1c.4,-.2,1.1,-.4,1.5,-.3c.4,.1,.1,.2,.8,.2c.4,-.1,.5,0,.8,0c.7,0,.5,-.3,1.5,.1c.7,.3,1,.4,1.6,0c.4,-.3,.3,-.1,.7,-.3c.4,-.1,.2,-.1,.4,-.5c1,.1,.9,.7,2.1,-.4Z" class="g0_1"/>
    <path d="M239.5,383.7c.6,0,.5,.3,1.2,.4c.3,.1,1,.2,1.2,.4c.4,.3,-.2,.6,.6,.8c.4,.1,.9,.2,1.3,.3c.6,.2,2.1,.4,2.7,.4l1.2,-.3c.5,-.1,.6,-.3,.9,-.6c.6,-.5,.4,.1,.6,-1c0,-.1,.2,-.5,.2,-.6l.4,-.3c.5,-.4,.6,-.3,.9,-.6c1,-.6,1.7,-1.2,1.8,-2.9c0,-.9,-.4,-1.6,-.7,-2.3c-.7,-1.4,-1.9,-2.2,-3.4,-2.8c-1.5,-.6,-3.7,-.5,-5.4,-.4c-1.6,.2,-4.3,-1.1,-8,.1c-.7,.3,-1.2,.8,-1.3,1.8c-.3,.1,-.9,-.1,-1.3,-.1c-1.2,0,-.8,.2,-1.3,.3c-.9,.3,-.3,-.3,-1.1,.6l-1,.6c-.1,-.4,-.1,-.7,-.5,-1c-.7,-.6,-1.5,-.3,-2,.2c-.6,.8,-.1,.7,-.5,.9c-.5,-.2,-.1,-.2,-.3,-.7c-.9,-.1,-.7,.7,-.8,1.5c-.6,-.1,-.8,-.4,-1.5,-.1c-.7,.3,-1.6,0,-2.5,.2l-2.4,-.1c-.2,.3,0,.2,-.2,.5c-.9,-.1,-1.8,-.4,-2.4,0c-.5,1,-.3,2.1,-.4,3l.5,.2c-.2,.3,0,.1,-.3,.3c.1,.3,.1,.1,.2,.5c-.4,.3,-.2,-.1,-.5,.4c-.5,.8,-.3,1.4,.4,1.9c1.4,1,1.4,.7,3.2,.9c1.2,.2,2.4,.4,3.7,.3c1.3,-.1,4,-.8,5.2,-1.4c1.4,-.7,1,.2,2.2,-.1c.4,-.2,1.1,-.4,1.5,-.3c.4,.1,.1,.2,.8,.2c.4,-.1,.5,0,.8,0c.7,0,.5,-.3,1.5,.1c.7,.3,1,.4,1.6,0c.4,-.3,.3,-.1,.7,-.3c.4,-.1,.2,-.1,.4,-.5c1,.1,.9,.7,2.1,-.4Z" class="g1_1"/>
    <path fill-rule="evenodd" d="M349.9,352.1c-1.1,-.2,-1,0,-1.2,.3v.1c-1,.2,-.5,.1,-1.4,-.2c-.5,.4,-.2,.2,-.8,.4l-1.2,.5c-.1,0,-.3,0,-.5,0c-.1,.2,-.1,.3,-.2,.5h-1.4l-.1,.6c.5,-.1,.4,-.2,.7,-.1c-.1,.4,0,.1,-.3,.3c-.2,0,0,-.1,-.3,.1c.1,.5,.3,.1,.4,.5c-.2,.2,-.2,.1,-.4,.2c-.3,.2,.2,.1,-.5,.2c-.3,.1,-.8,.2,-1.1,.3l-.2,.4c0,0,0,.1,0,.2v.2c0,.3,0,.1,-.1,.3l.1,.3c.2,.2,.1,.2,0,.5c.6,.1,.8,0,1.2,.3c.3,.3,-.1,.3,1,.4c0,.1,0,.3,0,.4c.1,.9,.5,.6,-.1,1.1h.5v.8c.7,-.2,.5,-.1,.8,.2c.6,.5,2.9,.5,3.4,.4c.8,-.2,.4,-.3,.8,-.4c1.3,-.6,1.2,-.2,1.7,-1l1.2,-1.2c1.2,-.3,.7,1.4,2.8,.9c2.4,-.5,1.4,-.1,3.9,-1.1c.4,-.1,.6,0,1,-.1c1.7,-.3,.2,-.6,1.6,-1c1,-.2,.8,-.3,2.1,-.4c1,-.1,.7,-.3,1.7,-.9c.3,-.1,.6,-.2,.9,-.3c.6,-.4,2.9,-1.8,3.4,-2.3l1,-1c.3,-.3,.3,-.2,.6,-.7c.8,-1.1,1,-1.3,1.2,-2.8c.2,-.7,.2,-1.8,.1,-2.5c0,-.6,-1.6,-2.8,-2.1,-3.1c-.5,-.3,-1.6,-.2,-2.1,-.4c-.8,-.4,-1.4,-.4,-2.4,-.5l-2.1,.4c-.2,.1,-.6,.4,-.8,.5c-.4,.1,-.7,.2,-1,.3c-.8,.5,-1,1.3,-3.2,1.8c-1.2,.3,-2.2,1.2,-2.6,1.3c-1.3,.4,-1,.8,-2.2,1.5c-.3,.2,-.6,.2,-.9,.4l-2,1.9q-.2,.2,-.3,.3c-.2,.4,0,.4,-.6,1.2Z" class="g0_1"/>
    <path d="M349.9,352.1c-1.1,-.2,-1,0,-1.2,.3v.1c-1,.2,-.5,.1,-1.4,-.2c-.5,.4,-.2,.2,-.8,.4l-1.2,.5c-.1,0,-.3,0,-.5,0c-.1,.2,-.1,.3,-.2,.5h-1.4l-.1,.6c.5,-.1,.4,-.2,.7,-.1c-.1,.4,0,.1,-.3,.3c-.2,0,0,-.1,-.3,.1c.1,.5,.3,.1,.4,.5c-.2,.2,-.2,.1,-.4,.2c-.3,.2,.2,.1,-.5,.2c-.3,.1,-.8,.2,-1.1,.3l-.2,.4c0,0,0,.1,0,.2v.2c0,.3,0,.1,-.1,.3l.1,.3c.2,.2,.1,.2,0,.5c.6,.1,.8,0,1.2,.3c.3,.3,-.1,.3,1,.4c0,.1,0,.3,0,.4c.1,.9,.5,.6,-.1,1.1h.5v.8c.7,-.2,.5,-.1,.8,.2c.6,.5,2.9,.5,3.4,.4c.8,-.2,.4,-.3,.8,-.4c1.3,-.6,1.2,-.2,1.7,-1l1.2,-1.2c1.2,-.3,.7,1.4,2.8,.9c2.4,-.5,1.4,-.1,3.9,-1.1c.4,-.1,.6,0,1,-.1c1.7,-.3,.2,-.6,1.6,-1c1,-.2,.8,-.3,2.1,-.4c1,-.1,.7,-.3,1.7,-.9c.3,-.1,.6,-.2,.9,-.3c.6,-.4,2.9,-1.8,3.4,-2.3l1,-1c.3,-.3,.3,-.2,.6,-.7c.8,-1.1,1,-1.3,1.2,-2.8c.2,-.7,.2,-1.8,.1,-2.5c0,-.6,-1.6,-2.8,-2.1,-3.1c-.5,-.3,-1.6,-.2,-2.1,-.4c-.8,-.4,-1.4,-.4,-2.4,-.5l-2.1,.4c-.2,.1,-.6,.4,-.8,.5c-.4,.1,-.7,.2,-1,.3c-.8,.5,-1,1.3,-3.2,1.8c-1.2,.3,-2.2,1.2,-2.6,1.3c-1.3,.4,-1,.8,-2.2,1.5c-.3,.2,-.6,.2,-.9,.4l-2,1.9q-.2,.2,-.3,.3c-.2,.4,0,.4,-.6,1.2Z" class="g1_1"/>
    <path fill-rule="evenodd" d="M232.9,351.6c.2,-.3,.1,-.3,.1,-.4c-.2,0,-.9,-.3,-1.4,-.3c-1.2,-.1,-1.4,-.6,-2.3,-.4c-.9,.2,-1,-.1,-1.2,.4c-.1,.3,.1,.1,-.2,.4c-.5,0,-.8,-.2,-1.1,.2c-.9,1.1,-.7,.3,-1.3,1.3c-.7,1.1,-1.1,2.1,-.8,3.4c.5,2.1,2.1,3.4,3.8,4.4c1.4,.8,2.7,.8,4.5,.9c2.5,.1,1.9,1.4,4.1,1.5c1.8,.1,1.9,1.4,5.5,1.3c.7,0,.3,.2,.9,.4c.9,.4,1.4,-.3,2.3,.1c2.1,1.1,.4,1.1,3.9,1.3c.1,.3,.1,-.2,.1,.5c.2,-.1,.8,0,1,0c.8,.2,.5,.3,.8,-.3c.3,.1,.2,.2,.4,.3c.4,-.4,.8,-.4,1.5,-.3l.4,-.5c1,.3,1.2,.1,2,-.3c.3,-.2,.7,-.3,.9,-.6c.2,-.4,.2,-.6,.7,-.6c.1,.3,.1,.2,-.1,.5h.4c.2,-.2,.3,-.6,.3,-1c.8,.1,-.1,.2,.6,.1c.1,-.8,.3,-1.5,-.2,-1.7c-.2,.5,.4,1.4,-.4,1.2c-.3,-.1,.1,0,-.2,-.1h-.1c-.5,-.1,-.5,.2,-.6,-.2c.2,-.1,.4,0,.8,0l.2,-1.1l.5,-.2c.1,-.7,.7,-1.8,-1.4,-2.7c-1.5,-.7,-2.8,-1.7,-4.8,-1.9c-1.8,-.2,-2.6,-1,-3.5,-.2c-.9,.8,-.1,1.2,0,1.3c-.7,0,-.5,-.1,-1.2,0l-.1,-.2v-.2c-.5,-.1,-.7,-.4,-1.2,-.5l.2,-1c-.3,-.3,-1.2,-.9,-1.6,-.9c-1,-.2,-.2,0,-1.1,-.3c-.1,-.1,-.8,-.2,-1,-.3c-.4,-.1,-.8,0,-1.2,-.1c-.6,-.1,-.4,-.2,-.9,-.2c-.5,0,-.7,-.3,-.8,-.3c-.3,-.1,.1,0,-.2,0c-.9,.2,-.5,-.1,-.6,-.2c-.2,-.1,.4,-.1,-.2,-.1c-.4,0,-.1,.1,-.6,.3c-.4,.2,-.8,0,-1.2,-.2c-1.1,-.4,0,.1,-1.3,-.7l-.6,-.5c-.6,-.3,0,-.1,-.5,-.4c-.2,-.2,-.1,.1,-.4,-.2c-.4,-.5,.2,-.2,-.7,-.5c-.5,-.2,-.3,-.2,-.9,-.2Z" class="g0_1"/>
    <path d="M232.9,351.6c.2,-.3,.1,-.3,.1,-.4c-.2,0,-.9,-.3,-1.4,-.3c-1.2,-.1,-1.4,-.6,-2.3,-.4c-.9,.2,-1,-.1,-1.2,.4c-.1,.3,.1,.1,-.2,.4c-.5,0,-.8,-.2,-1.1,.2c-.9,1.1,-.7,.3,-1.3,1.3c-.7,1.1,-1.1,2.1,-.8,3.4c.5,2.1,2.1,3.4,3.8,4.4c1.4,.8,2.7,.8,4.5,.9c2.5,.1,1.9,1.4,4.1,1.5c1.8,.1,1.9,1.4,5.5,1.3c.7,0,.3,.2,.9,.4c.9,.4,1.4,-.3,2.3,.1c2.1,1.1,.4,1.1,3.9,1.3c.1,.3,.1,-.2,.1,.5c.2,-.1,.8,0,1,0c.8,.2,.5,.3,.8,-.3c.3,.1,.2,.2,.4,.3c.4,-.4,.8,-.4,1.5,-.3l.4,-.5c1,.3,1.2,.1,2,-.3c.3,-.2,.7,-.3,.9,-.6c.2,-.4,.2,-.6,.7,-.6c.1,.3,.1,.2,-.1,.5h.4c.2,-.2,.3,-.6,.3,-1c.8,.1,-.1,.2,.6,.1c.1,-.8,.3,-1.5,-.2,-1.7c-.2,.5,.4,1.4,-.4,1.2c-.3,-.1,.1,0,-.2,-.1h-.1c-.5,-.1,-.5,.2,-.6,-.2c.2,-.1,.4,0,.8,0l.2,-1.1l.5,-.2c.1,-.7,.7,-1.8,-1.4,-2.7c-1.5,-.7,-2.8,-1.7,-4.8,-1.9c-1.8,-.2,-2.6,-1,-3.5,-.2c-.9,.8,-.1,1.2,0,1.3c-.7,0,-.5,-.1,-1.2,0l-.1,-.2v-.2c-.5,-.1,-.7,-.4,-1.2,-.5l.2,-1c-.3,-.3,-1.2,-.9,-1.6,-.9c-1,-.2,-.2,0,-1.1,-.3c-.1,-.1,-.8,-.2,-1,-.3c-.4,-.1,-.8,0,-1.2,-.1c-.6,-.1,-.4,-.2,-.9,-.2c-.5,0,-.7,-.3,-.8,-.3c-.3,-.1,.1,0,-.2,0c-.9,.2,-.5,-.1,-.6,-.2c-.2,-.1,.4,-.1,-.2,-.1c-.4,0,-.1,.1,-.6,.3c-.4,.2,-.8,0,-1.2,-.2c-1.1,-.4,0,.1,-1.3,-.7l-.6,-.5c-.6,-.3,0,-.1,-.5,-.4c-.2,-.2,-.1,.1,-.4,-.2c-.4,-.5,.2,-.2,-.7,-.5c-.5,-.2,-.3,-.2,-.9,-.2Z" class="g1_1"/>
    <path fill-rule="evenodd" d="M274.3,328.7c-.5,.4,-.4,.3,-.4,1.1l-.3,.2l.2,.4c0,.1,-.1,.1,-.1,.1l-.2,.1c.3,.3,.2,-.1,.3,.5c-.4,.2,-.2,0,-.5,.2c.1,.4,0,0,.2,.2c.3,.3,.1,-.2,.2,.3c-.2,.1,-.3,0,-.5,.2l.1,.1l.2,.1c0,0,0,.1,0,.1c-.5,.7,-.5,1.7,-.5,2.6l.3,.4c-.1,.1,-.2,.1,-.3,.2l.5,.3h-.1q0,.1,0,.1c0,0,0,.1,0,.1c-.1,.2,-.1,.5,0,.9l.3,.2c0,.6,-.1,.9,.1,1.1l.3,.1q.1,.1,.1,.1c-.3,.5,.3,-.4,-.1,.1c-.2,.2,-.1,0,-.2,.3c.8,.5,.4,.5,.9,1.1c.5,.6,.6,1.3,1,1.9q.2,.3,.3,.7c.1,1,.2,.8,.8,1.2c0,.9,0,.5,.2,1l.4,1.1c0,0,.1,.1,.2,.1c.2,.4,.3,1,.7,1.2c.3,0,.6,0,.9,.1c.7,.1,0,.1,.7,.3c.4,-.2,.3,-.2,.8,-.2c.5,0,.6,0,.7,-.6q.1,.1,.2,.1c.3,.1,.2,0,.4,-.1l.8,-.3c.2,0,.2,.1,.6,.1c0,-.1,.2,-.3,.2,-.3l.3,-.4l.1,-.1v-.1l.2,-.1c-.1,-.1,0,0,-.2,-.1l-.2,-.1c.1,-.1,.3,-.1,.4,-.3c-.2,-.5,-.4,0,-.8,-.5c.8,-.8,.3,-.7,.4,-1.5h-.6c0,-.6,.2,-.4,-.1,-.8c.2,-.1,.2,0,.3,-.3c-.5,-.3,-.3,0,-.4,-.4c.4,-.4,.2,.2,.4,-.6c.1,-.2,.1,-.3,.1,-.4c.1,-.3,.1,-.2,.2,-.3c.2,-.4,.2,-.9,.6,-1.7c.4,-.9,-.4,-2.3,-.8,-3.1c-.3,-.7,-.5,-2,-1.3,-2.9c-.7,-.9,-1.2,-1.3,-1.5,-2.6l-.5,-1.5c-.3,-.9,.1,-.8,-.6,-1.5c-.7,-.9,-.9,-2.2,-1.8,-2.4c-1.7,-.5,-2.1,.4,-2.8,1.2c-.7,.8,-.3,.8,-.6,1.8l-.1,.5c-.1,.2,-.3,.1,-.2,.5l.1,.2Z" class="g0_1"/>
    <path d="M274.3,328.7c-.5,.4,-.4,.3,-.4,1.1l-.3,.2l.2,.4c0,.1,-.1,.1,-.1,.1l-.2,.1c.3,.3,.2,-.1,.3,.5c-.4,.2,-.2,0,-.5,.2c.1,.4,0,0,.2,.2c.3,.3,.1,-.2,.2,.3c-.2,.1,-.3,0,-.5,.2l.1,.1l.2,.1c0,0,0,.1,0,.1c-.5,.7,-.5,1.7,-.5,2.6l.3,.4c-.1,.1,-.2,.1,-.3,.2l.5,.3h-.1q0,.1,0,.1c0,0,0,.1,0,.1c-.1,.2,-.1,.5,0,.9l.3,.2c0,.6,-.1,.9,.1,1.1l.3,.1q.1,.1,.1,.1c-.3,.5,.3,-.4,-.1,.1c-.2,.2,-.1,0,-.2,.3c.8,.5,.4,.5,.9,1.1c.5,.6,.6,1.3,1,1.9q.2,.3,.3,.7c.1,1,.2,.8,.8,1.2c0,.9,0,.5,.2,1l.4,1.1c0,0,.1,.1,.2,.1c.2,.4,.3,1,.7,1.2c.3,0,.6,0,.9,.1c.7,.1,0,.1,.7,.3c.4,-.2,.3,-.2,.8,-.2c.5,0,.6,0,.7,-.6q.1,.1,.2,.1c.3,.1,.2,0,.4,-.1l.8,-.3c.2,0,.2,.1,.6,.1c0,-.1,.2,-.3,.2,-.3l.3,-.4l.1,-.1v-.1l.2,-.1c-.1,-.1,0,0,-.2,-.1l-.2,-.1c.1,-.1,.3,-.1,.4,-.3c-.2,-.5,-.4,0,-.8,-.5c.8,-.8,.3,-.7,.4,-1.5h-.6c0,-.6,.2,-.4,-.1,-.8c.2,-.1,.2,0,.3,-.3c-.5,-.3,-.3,0,-.4,-.4c.4,-.4,.2,.2,.4,-.6c.1,-.2,.1,-.3,.1,-.4c.1,-.3,.1,-.2,.2,-.3c.2,-.4,.2,-.9,.6,-1.7c.4,-.9,-.4,-2.3,-.8,-3.1c-.3,-.7,-.5,-2,-1.3,-2.9c-.7,-.9,-1.2,-1.3,-1.5,-2.6l-.5,-1.5c-.3,-.9,.1,-.8,-.6,-1.5c-.7,-.9,-.9,-2.2,-1.8,-2.4c-1.7,-.5,-2.1,.4,-2.8,1.2c-.7,.8,-.3,.8,-.6,1.8l-.1,.5c-.1,.2,-.3,.1,-.2,.5l.1,.2Z" class="g1_1"/>
    <path fill-rule="evenodd" d="M339,351.8c.1,.3,0,.2,0,.6c.6,.1,.8,-.1,1.2,.3c.3,.2,-.1,.2,1,.3c0,.1,0,.3,0,.4c.2,.9,.5,.6,-.1,1.1h.5l.1,.7c.6,-.2,.4,0,.8,.3c.6,.5,2.9,.4,3.4,.2c.7,-.2,.4,-.2,.8,-.4c1.2,-.6,1.1,-.2,1.6,-1l1.2,-1.3c1.2,-.3,.7,1.4,2.8,.9c2.4,-.6,1.4,-.2,3.9,-1.3c.3,-.1,.6,0,1,-.1c1.7,-.4,.1,-.6,1.6,-1c.9,-.3,.8,-.4,2,-.5c1,-.1,.7,-.4,1.7,-.9c.3,-.2,.6,-.3,.9,-.4c.6,-.4,2.9,-1.9,3.3,-2.4l1,-1.1c.3,-.3,.3,-.2,.6,-.6c.8,-1.2,.9,-1.4,1.1,-2.9c.1,-.7,.1,-1.8,0,-2.5c-.1,-.5,-1.7,-2.7,-2.2,-3c-.5,-.3,-1.6,-.2,-2.2,-.4c-.8,-.3,-1.3,-.4,-2.3,-.3l-2.1,.4c-.2,.1,-.6,.4,-.8,.5c-.4,.1,-.7,.2,-1,.3c-.8,.6,-.9,1.4,-3.1,2c-1.2,.3,-2.2,1.2,-2.5,1.3c-1.4,.5,-1,.9,-2.3,1.6c-.3,.2,-.5,.2,-.8,.4l-2,2c-.1,.2,-.1,.1,-.2,.3c-.3,.4,-.1,.3,-.7,1.2c-1.1,-.2,-.9,0,-1.1,.3c0,0,0,.1,0,.1c-1,.2,-.5,.2,-1.4,-.1c-.4,.4,-.2,.2,-.8,.5l-1.1,.4c-.2,0,-.4,0,-.5,0c-.2,.3,-.1,.4,-.3,.6h-1.4v.6c.5,-.1,.3,-.2,.6,-.1c-.1,.4,.1,.1,-.2,.3c-.2,0,-.1,-.1,-.4,.1c.2,.5,.3,.1,.5,.6c-.2,.1,-.2,0,-.4,.1c-.3,.2,.2,.1,-.5,.3c-.3,.1,-.8,.1,-1.1,.2l-.2,.5c0,0,0,.1,0,.1v.3c0,.2,0,.1,-.1,.3Z" class="g2_1"/>
    <path d="M339,351.8c.1,.3,0,.2,0,.6c.6,.1,.8,-.1,1.2,.3c.3,.2,-.1,.2,1,.3c0,.1,0,.3,0,.4c.2,.9,.5,.6,-.1,1.1h.5l.1,.7c.6,-.2,.4,0,.8,.3c.6,.5,2.9,.4,3.4,.2c.7,-.2,.4,-.2,.8,-.4c1.2,-.6,1.1,-.2,1.6,-1l1.2,-1.3c1.2,-.3,.7,1.4,2.8,.9c2.4,-.6,1.4,-.2,3.9,-1.3c.3,-.1,.6,0,1,-.1c1.7,-.4,.1,-.6,1.6,-1c.9,-.3,.8,-.4,2,-.5c1,-.1,.7,-.4,1.7,-.9c.3,-.2,.6,-.3,.9,-.4c.6,-.4,2.9,-1.9,3.3,-2.4l1,-1.1c.3,-.3,.3,-.2,.6,-.6c.8,-1.2,.9,-1.4,1.1,-2.9c.1,-.7,.1,-1.8,0,-2.5c-.1,-.5,-1.7,-2.7,-2.2,-3c-.5,-.3,-1.6,-.2,-2.2,-.4c-.8,-.3,-1.3,-.4,-2.3,-.3l-2.1,.4c-.2,.1,-.6,.4,-.8,.5c-.4,.1,-.7,.2,-1,.3c-.8,.6,-.9,1.4,-3.1,2c-1.2,.3,-2.2,1.2,-2.5,1.3c-1.4,.5,-1,.9,-2.3,1.6c-.3,.2,-.5,.2,-.8,.4l-2,2c-.1,.2,-.1,.1,-.2,.3c-.3,.4,-.1,.3,-.7,1.2c-1.1,-.2,-.9,0,-1.1,.3c0,0,0,.1,0,.1c-1,.2,-.5,.2,-1.4,-.1c-.4,.4,-.2,.2,-.8,.5l-1.1,.4c-.2,0,-.4,0,-.5,0c-.2,.3,-.1,.4,-.3,.6h-1.4v.6c.5,-.1,.3,-.2,.6,-.1c-.1,.4,.1,.1,-.2,.3c-.2,0,-.1,-.1,-.4,.1c.2,.5,.3,.1,.5,.6c-.2,.1,-.2,0,-.4,.1c-.3,.2,.2,.1,-.5,.3c-.3,.1,-.8,.1,-1.1,.2l-.2,.5c0,0,0,.1,0,.1v.3c0,.2,0,.1,-.1,.3l.2,.2Z" class="g3_1"/>
    <path fill-rule="evenodd" d="M269,363.2c.1,-.2,0,0,0,0Z" class="g2_1"/>
    <path d="M269,363.2c.1,-.2,0,0,0,0Z" class="g3_1"/>
    <path fill-rule="evenodd" d="M378.3,364.8c-.2,-1.6,-1.3,-4.1,-2.3,-4.9c-.7,-.6,-2.7,-.9,-3.7,-.8c-.5,0,-.6,.1,-1.1,.1c-2.7,.1,-2.8,1,-4.5,1.2c-.9,.2,-1.3,.6,-2.2,.7c-.8,.1,-1.6,.3,-2.5,.3c-1.3,0,-3.7,.3,-5,.6c-.8,.2,-1.7,.2,-2.5,.3c-.8,.1,-.6,.2,-1.1,.4c-1.1,.4,-2.6,.1,-3.8,-.1c-2.8,-.5,-1.6,1,-6.2,-.2c-.5,-.1,-.6,-.2,-1,-.5c-1,-.6,-.8,-.6,-.8,-2c-.1,-.8,-.3,-1.5,-.9,-2c-.6,-.4,-.2,-.2,-1,-.5c-.4,-.1,-.6,-.3,-.8,-.6c-.3,-.4,-.3,-.5,-.7,-.8c-.8,-.4,-.5,-.3,-.7,-.7l-.9,-.1c.1,-.3,.1,-.1,.5,-.3c-.2,-.5,-.3,0,-.3,-.5c-.1,-.3,.1,-.1,.1,-.5l-.5,-.3c0,0,-.1,-.1,-.1,-.1c-.4,-.3,-.8,-.7,-1.3,-.8q-.1,0,-.1,0h-.5c-.2,.3,0,.2,-.3,.4c-.7,-.1,0,-.1,-.7,-.1c-.7,0,-.5,-.2,-1.2,-.5c-1.3,-.7,-.1,-2.3,-4.1,-3.9c-.6,-.2,-.8,-.8,-2,-1.5q-.6,-.3,-.9,-.9c-.3,-.3,-.7,-.6,-.8,-.9c-.1,-.4,.1,-1.2,.1,-1.7c0,-.4,-.1,-1.4,0,-1.6c.1,-.7,1,-1.7,1.5,-2.1c.5,-.3,.5,-.4,.9,-.9c.2,-.3,.6,-.6,.8,-.9c.8,-.9,1.4,-1.1,2.4,-2.1c.2,-.2,.4,-.3,.5,-.4c.2,-.2,.2,-.3,.4,-.5c.4,-.3,.7,-.4,1,-.8c.1,-.1,0,0,.2,-.3c.3,-.4,.7,-.6,1,-1c.7,-1.1,1.3,-2.5,1.6,-3.9c.3,-1.2,1.1,-3.3,.5,-4.6c-.1,-.1,-.7,-.9,-.8,-1c-.2,-.3,-.6,-.5,-1,-.7c-1.9,-.9,-3.8,0,-5.4,1c-.7,.5,-.5,.4,-1,.8l-1,.7c-.5,.4,-1.1,.7,-1.6,1c-.8,.4,-1,.7,-1.5,1.2c-.7,.6,-1,1.1,-2,1.5c-.9,.4,-1.4,.7,-2,1.5c-.3,.6,-.4,.5,-.8,.9c-.2,.1,-.3,.3,-.5,.4c-.2,.3,-.2,.2,-.5,.4c-.4,.4,-.2,.5,-.8,.9c-.9,.5,-.9,1.3,-1.8,1.7c-.5,.3,-.6,.5,-1,.8c-.4,.3,-.7,.4,-1.1,.7c-1.1,.8,-.7,.7,-1.9,1.5c-.9,.6,-1.7,1.8,-2.8,2.6c-.4,.4,-.4,.5,-.9,.8c-.4,.2,-.5,.7,-.9,1c-.2,.1,-.3,.1,-.5,.3c-.6,.4,-.8,.9,-1.5,1.1c-1.3,.6,-.9,.9,-1.7,1.8c-.7,.8,-1.1,1.8,-1.5,2.1c-.3,.2,-.6,.6,-.9,.7c.2,.6,0,1.4,-.1,2.3c-.1,1.1,-.3,1,-.7,1.8c-.7,1.6,-.3,.7,-.9,1.6c-.2,.3,-.4,.5,-.6,.7c-.6,.5,-.7,-.1,-.9,.5c-.3,1,.2,.9,-1.3,.9c-.1,.2,-.1,.3,-.3,.5c-.6,0,-1.6,-.3,-2.1,-.6c-.7,-.4,-1.7,-2.4,-2,-3.3c-.3,-.9,-.2,-1,-1.1,-1.4l.3,-.5c-.4,-.3,-.3,-.5,-.8,-.8c-.4,-.2,-.6,-.3,-.8,-.7c-.4,-.7,-.9,-.9,-1.3,-1.6c-.2,-.3,-.4,-.6,-.6,-.9c-.9,-1.1,-2,-1.8,-2.2,-2.2c-.3,0,-1,.1,-1.2,.2c-.2,.7,-.1,.5,.1,1c-.2,.3,-.2,.1,-.4,.5c.2,.1,.3,.2,.3,.3h-.7l-.1,-.2q0,-.1,0,-.2V346c0,0,-.2,-.1,-.2,-.1c0,0,-.1,0,-.1,0l-.1,.1c0,0,-.1,0,-.1,0c0,0,0,.1,0,.1l.1,.4c-.4,-.1,-.2,-.1,-.6,-.1c.2,-.3,.1,-.1,.1,-.4c-.3,-.3,-.1,-.3,-.6,-.4c0,0,.2,-.1,.2,-.1c.5,-.4,-.7,-.4,-1,-.4c.1,-.3,.2,-.2,.3,-.4c-.2,-.3,-.1,-.1,-.2,-.3l.8,-.1c-.1,-.4,.1,-.4,-.6,-.3c-.8,.1,-.5,-.1,-1.1,.3c-.1,.2,-.3,.2,-.6,.2c0,1.1,-.3,.1,-.2,1.1c.9,-.4,.9,-.1,1,.1c-.3,.1,-.4,0,-.9,.1l.3,1.7v.1c.2,-.2,.1,-.1,.2,-.3c0,0,0,-.1,.1,-.1v-.1c.4,.6,.3,.4,-.2,.8c.1,.5,0,0,.3,.5c-.2,.2,-.6,.3,-.1,.5c.4,.1,.4,-.2,.7,.2c-.2,.2,-.4,.1,-.7,.1c.2,1.2,.3,.4,.7,1l.4,.4c.5,.5,-.2,.2,.5,1.2c-.4,.4,-.1,.2,-.3,.7c-.2,.4,-.2,.1,-.3,.7c-1.3,.1,-.7,.1,-1.7,0c-.4,.5,-.4,.6,-.5,1.4c-.1,.9,-.4,.7,-.8,1.1c-.2,.3,0,.2,-.4,.6c-.7,.6,-.5,1.3,-.6,2.3c.3,-.1,.5,-.1,.8,-.1c-.1,.3,.1,.1,-.4,.3l.1,.6l-.4,.2c.1,.3,0,.5,.2,.9c.2,-.3,-.4,.7,0,0c-.1,0,-.1,.1,-.2,.2c-.1,.1,-.2,.2,-.1,.5c0,.2,.1,.1,.1,.4c0,0,-.1,.2,-.1,.3c0,0,0,.1,0,.1l.4,.1l-.2,.4c0,0,-.1,0,-.1,0q.1,.2,.1,.3q.1,.1,.1,.2c-.2,-.5,.2,.2,0,0c-1.1,-.2,0,-.4,-.7,-.7c-.2,.2,-.1,.2,-.2,.4v.2c0,-.1,0,0,-.1,0l-.4,-.1c0,-.4,0,-.1,.1,-.3c0,-.1,0,-.2,0,-.3c.1,-.2,.2,-.4,.1,-.6c-.3,-.1,-.5,.1,-1,0c.1,-.4,.1,-.2,.4,-.3l-.4,-.7c-.5,.1,-.3,0,-.7,.3c-.3,.4,-.2,.1,-.3,.7c-.7,-.1,.1,-.1,-.9,0c-.8,.2,-1.7,-.1,-2.8,0q-.1,0,-.1,0l-.1,-.3c-.1,-.1,0,0,-.1,-.2c-.2,.2,-.2,.4,-.3,.7c.5,-.2,.3,0,.8,.1c.3,0,.1,-.1,.4,-.1c.4,.1,.2,-.1,.4,.3c-.3,.3,0,.1,-.4,.1c-.6,.1,-.7,-.1,-.6,.7c-.1,-.1,-.2,-.2,-.2,-.2c0,.6,.6,.2,1.1,.5c-.3,.2,-.8,.3,-1.2,0c-.4,-.2,.2,-.1,-.3,-.3c0,0,0,.1,0,.1c0,0,0,.1,0,.1c-.1,0,-.1,.1,-.1,.1c-.1,.3,0,.4,0,.7c-.9,0,-.5,0,-1.1,.2c-.2,-.5,.1,-.5,-.5,-.7c-.2,-.1,-.3,-.1,-.4,-.1c-.3,0,-.1,.1,-.3,-.1c.3,-.2,.3,0,.5,-.3c-.4,-.2,-1.2,-.1,-.6,-1.1c-.5,-.4,-.3,-.6,-.7,-1c-.2,-.2,0,0,-.1,-.2c-.3,-.2,-.4,-.2,-.6,-.4c-.6,-.3,-1,-.6,-1.7,-.6c0,-.1,-.1,-.3,-.1,-.4c-1.7,-.1,-.4,-.4,-1.9,-.5c-.4,-.1,-.3,-.2,-.8,-.2c-.8,-.1,-1.6,-1.2,-2.7,-.4c-.5,.3,-.7,.6,-.8,1.5c.3,-.1,-.3,.1,0,0h-.1l-.2,.9l.3,.1c.1,0,-.1,-.2,.2,0c-.3,.4,-.2,.1,-.2,.7c-.6,-.1,-.2,-.2,-.6,.3c-.2,.2,-.4,.2,-.4,.5c-.2,1.5,-.2,.7,-.5,1.5c-.2,.4,-.1,1.6,-.2,1.8c-.2,.5,-.3,.6,.1,1.3c-.5,.4,-.5,1,-.5,1.6c.6,.1,.7,0,1.1,.4c-.4,.1,-.3,-.1,-.7,-.1c-.5,0,-.4,.1,-.8,.1c-.1,.9,-.2,1.4,-.3,2.1c-1.9,.2,-2.6,2.9,-2.6,4.6c-.1,1.7,-.2,1.8,.3,3.1c.2,.4,.4,.9,.6,1.2c.3,.3,.3,.7,.6,1.1c0,.4,-.1,.7,-.1,.9l.3,.7c-.3,.4,-.3,.9,-.2,1.4c0,.5,.1,.3,.1,.6l.1,.4c0,0,0,.1,0,.1q-.5,0,-.8,.3l.4,.3q-.1,0,-.1,0c0,0,-.1,0,-.1,0l-.1,.1c-.2,.1,-.1,0,-.2,.1c-.2,2.4,.4,1.6,.4,2.7c-.4,.4,-.4,1,-1,1.1c-.3,.1,-1.1,-.5,-1.5,-.6c-1.6,-.7,-3.7,-1,-5.3,-.3c-.9,.4,-.4,.6,-1.6,.4c-.9,-.2,-1.1,0,-1.9,.2c-1.5,.3,-4.1,-.3,-6.1,.1c-1.1,.2,-2.1,.8,-3.1,1.1c-.4,.1,-1.4,.4,-1.8,.4c-.3,0,-.6,0,-1,0c-1.5,.4,-.7,.4,-2.5,-.2c-.5,-.1,-1.2,0,-1.8,-.1c-.5,.7,.4,.2,-1.5,.4l-1.2,.2c-.1,.1,-.2,.1,-.3,.1c0,0,0,.1,0,.1c.5,-.1,-.2,.1,0,-.1c-.8,-.7,-.8,-.5,-.8,.6l-.7,.1v.9c-.9,.3,-1.3,1.2,-.6,2.1c-.3,.3,-.1,0,-.3,.3c.3,.7,.1,1.3,.2,1.8c.2,.5,.3,0,.4,.8c0,.3,0,.5,.1,.8c.1,.4,.7,1.1,.9,1.3c.2,.2,1,.6,1.5,.7c2.7,.7,5.1,.2,7.7,0c.7,-.1,1.4,-.1,2.1,-.1c.6,-.1,1.1,-.3,1.7,-.3c.7,-.1,1.3,-.1,1.9,-.2c.7,-.1,1.5,.1,2,0c.3,-.1,.5,-.2,.9,-.3c.9,-.1,1.9,.1,2.7,-.4c.2,-.1,.3,-.2,.6,-.4c.4,-.3,.3,-.3,.5,-.7c.3,-.5,.2,-.2,.7,-.4c.3,-.2,.2,-.2,.6,-.4c.9,.1,.5,.4,1.2,.6c.8,.4,3.2,.3,4.4,-.3c.6,-.3,.4,-.3,.9,-.8c.6,-.6,1,-.4,1.7,-1.6c.2,-.2,.7,-.8,.9,-.9c.8,-.2,2.2,.5,2.7,.9c.5,.4,.5,1.7,.9,2.5c.6,1.5,1.7,2.3,2,3c.9,2.4,-1.3,.8,-2.5,1.5c-1,.6,-.8,.3,-1.6,1.3c-.8,1,-1.1,.7,-1.9,1c-.4,.2,-.4,.4,-.9,.5c-.4,.1,-.9,0,-1.3,.1c-.6,.1,-.5,.2,-1.1,.3c-1.3,.2,-1.8,.3,-3,1.2c-.6,.4,-1.8,1.1,-2.6,.2c-.6,-.8,.3,-2.1,-1.1,-1.7c-.4,.1,-.5,.1,-1,.1c.2,.4,.2,.1,.4,.4q-.2,0,-.4,0c-.3,-.1,-.8,-.2,-1.1,-.1c0,.3,.1,.2,.2,.4q.1,.1,.1,.1v.1c-.8,-.1,-.7,-.3,-.8,.5c-1.7,.3,-2,1.2,-2.7,1.9c-.4,.3,-.5,.5,-.7,.9c-.2,.4,-.1,.6,-.4,1c-1,1.4,-.8,3,.1,4.4c1.1,1.5,2.2,2.5,4.2,2.5c1.5,0,2.5,-.6,3.7,-1.2c1.1,-.5,1.1,-.7,2,-1.3c.2,-.2,.7,-.3,1,-.5c1.8,-.9,1.3,.1,2.6,-.2c.3,-.1,1,-.3,1.3,-.5c1,-.5,2.4,-.8,3.3,-1.4c2.3,-1.5,.5,-2.3,4.2,-2.4c.8,0,.8,-.1,1.4,-.2c.8,-.3,3.2,-.6,3.5,-1.4c.4,-1,-.3,-1.4,-.3,-2.1c.5,-.1,.8,.1,1.1,.3c.4,.4,.2,.4,.7,.8l1.2,.8c.1,.1,.2,.3,.3,.5c.8,.1,1.8,0,2.4,.3c.4,.1,3.2,-.5,3.8,-.7c.8,-.2,1.9,-.2,2.8,-.4c1,-.2,1.1,-1,1.6,-1.1c.8,-.3,1.3,.1,2.2,-.4c.6,-.4,.8,-.6,1.2,-.9l1.3,-.7c.5,-.1,.7,0,.8,-.6c.9,0,.3,-.1,1,-.5c.4,-.1,.8,-.2,1.1,-.4c.2,-.2,.7,-.5,1,-.5c.8,-.1,1.9,-.2,2.6,-.5c.5,-.3,.1,-.4,1,-.5c3.2,-.5,4,-2.4,5.7,-3.4l1.6,-1.6c.8,-.8,.3,-1.3,1.7,-1.2c.3,.6,-.2,.2,.5,.5c.3,.1,.4,.1,.6,.3c.4,.3,.8,.4,1.3,.5c.2,.2,.2,.3,.4,.4c0,0,.2,.1,.4,.1c.5,.3,.5,.7,1.1,.4c.5,-.2,.8,-.5,1.1,0c-.1,.1,-.1,0,-.4,0c-.3,.1,0,-.2,-.2,.2l.6,.2c.6,.4,.4,-.1,1.6,0l.3,-1.2c.1,.3,.1,.4,.4,.6c.2,.2,.2,.1,.2,.3c-.2,.1,-.3,0,-.5,.2c0,.2,.1,.3,.1,.5l.3,-.3c.3,.1,.6,.7,.5,-.5l.5,-.1c.1,.2,0,0,.1,.2c0,.3,.1,.4,.4,.5c.1,0,0,0,.1,0l.3,.3c.4,-.2,.1,-.4,.8,-.4c.2,.5,-.3,.5,.5,.4l-.1,-.5c.4,.1,.2,.1,.7,.1c0,0,.3,0,.3,0c.4,0,.3,.2,.4,.4c.3,.2,.3,0,.9,.6c.5,.6,.6,.5,1.2,.9c1.6,1.1,2.6,-.1,3.4,.7c.9,1,.8,.9,2,1.2c1.4,.4,1.1,.8,2.5,-.1c.7,-.5,-.1,-.7,1,-.6c-.1,-.4,-.2,-.3,-.2,-.5c.6,-.1,.1,.1,.5,.1c.3,0,0,-.1,.6,-.1c.2,0,1.1,0,1.2,.1c.3,-.5,0,-.4,.4,-.5c.1,.7,-.2,1.4,.4,1.9c.1,.1,0,.1,.2,.2c1.4,.8,2.7,.2,3.6,-.4c1.4,-1,.6,-1.4,1.5,-2.3c.5,-.5,1.4,-1.5,2.1,-1.4c.1,1.8,-2.4,1.5,-1.6,3.5c.6,1.3,1.9,1.9,3.2,2.1c2.2,.4,2.2,-.7,2.7,-.6c.4,.2,.3,.4,.6,.5c.4,.2,.4,.1,.7,.4c1,1.3,.6,.8,1.8,1.4c.6,.4,1.5,.3,2.3,.8c.7,.4,2.4,.9,3,1.3c1.2,1,3.3,1,4.7,1.6c1.1,.5,4.6,.1,5.6,-.3c.6,-.2,1.2,-1,1.7,-1.5q.2,-.3,.4,-.6c.9,-1.3,1.1,-3.5,.2,-5c-.8,-1.5,.6,-.9,-1.8,-2.5c-.2,-.1,-.8,-.8,-1.1,-.9c-1.8,-.9,-4.4,-.5,-5.6,-.8c-.7,-.2,-.6,-.4,-1.6,-.4c-1.3,-.1,-.8,.2,-1.7,.3c-.7,.2,-1.2,0,-1.8,-.1c-.8,-.2,-1.1,-.3,-1.9,-.2c-1.2,.2,-.9,-.3,-1.6,-.4c-1.1,-.1,-1,.1,-1.5,-.6c-1.1,-1.6,-3.8,-.4,-5,-.5c-.1,-1,.5,-1.5,.7,-3.4c.2,-1.2,1,-.9,1.5,-1.5c1.7,-2,1.5,-3.9,2.4,-4.6c.4,-.3,.8,-.4,1.5,-.2c.1,0,.4,.6,1.3,1.2c1,.6,2.2,1.4,3.3,1.6c.5,.2,1.4,.4,2,.4c.9,-.1,1.1,-.5,1.6,-.9c.9,-.8,.7,-.4,1.7,-.3c.7,0,1.4,0,2.2,.1c3.3,.4,2.3,-.5,4.3,-.3c2.4,.1,2.1,.2,4.2,.8c.5,.1,1.6,.1,2.2,.2c3.4,.3,5.4,.8,7.7,-1.3c.3,-.3,.3,-.4,.7,-.7c.6,-.5,1.1,-1.4,1.2,-2.4c.6,-2.7,1.1,-3.5,-.4,-6c-.3,-.5,-.8,-.8,-1.2,-1.1c-1,-.8,-2.8,-.9,-4,-.8c-1.1,.1,-1.2,.2,-2.1,.3c-.7,.1,-1.4,.3,-2,.3c-1,.1,-1.5,-.1,-2.4,.1c-.7,.1,-1.1,.4,-1.8,.5c-.8,.1,-1.4,-.1,-2.3,.2c-.9,.3,-2,.2,-3,.4c-.4,.1,-.5,.2,-.9,.3c-.4,0,-.8,0,-1.1,0c-.4,.1,-.7,.1,-1,.2c-.4,-.2,0,-.5,-1.5,-.5c-.6,0,-1.2,-.1,-1.8,-.1c-.2,-.6,0,-.5,0,-.7l-.1,-.5c-.1,-.3,-.3,-1.2,-.3,-1.4c.2,-.1,.1,-.1,.3,-.2c.3,-.1,2,-.1,2.2,.1c.3,.1,.3,.4,.4,.6h.4c.2,-.2,.2,-.5,.3,-.6c.4,-.3,.3,0,.8,-.2c.7,-.3,1.8,-1,2.6,-1c.2,0,.6,.1,.9,.1c.6,.1,.1,0,.5,.2c.7,-.5,1.3,-.7,2.2,-.7c.8,0,1.7,-.2,2.6,-.3c.5,-.1,.7,-.2,1.1,-.3c.7,-.2,1.3,-.1,1.9,-.3q.2,-.1,.4,-.2c.4,-.1,.9,-.2,1.2,-.2c.8,-.2,2,.1,2.7,-.1c.3,-.2,.1,-.2,.6,-.3l1.8,-.2c1.1,0,1.5,-.2,2.4,-.4c.4,-.1,.8,-.1,1.2,-.2c.5,-.2,.4,-.3,1,-.4c.8,-.1,.7,-.1,1.1,-.3c1.1,-.5,1.7,-1.1,2.2,-2.2c.4,-.9,.3,-1.5,.5,-2.6c0,-.4,.2,-.9,.2,-1.3Z" class="g2_1"/>
    <path d="M378.3,364.8c-.2,-1.6,-1.3,-4.1,-2.3,-4.9c-.7,-.6,-2.7,-.9,-3.7,-.8c-.5,0,-.6,.1,-1.1,.1c-2.7,.1,-2.8,1,-4.5,1.2c-.9,.2,-1.3,.6,-2.2,.7c-.8,.1,-1.6,.3,-2.5,.3c-1.3,0,-3.7,.3,-5,.6c-.8,.2,-1.7,.2,-2.5,.3c-.8,.1,-.6,.2,-1.1,.4c-1.1,.4,-2.6,.1,-3.8,-.1c-2.8,-.5,-1.6,1,-6.2,-.2c-.5,-.1,-.6,-.2,-1,-.5c-1,-.6,-.8,-.6,-.8,-2c-.1,-.8,-.3,-1.5,-.9,-2c-.6,-.4,-.2,-.2,-1,-.5c-.4,-.1,-.6,-.3,-.8,-.6c-.3,-.4,-.3,-.5,-.7,-.8c-.8,-.4,-.5,-.3,-.7,-.7l-.9,-.1c.1,-.3,.1,-.1,.5,-.3c-.2,-.5,-.3,0,-.3,-.5c-.1,-.3,.1,-.1,.1,-.5l-.5,-.3c0,0,-.1,-.1,-.1,-.1c-.4,-.3,-.8,-.7,-1.3,-.8q-.1,0,-.1,0h-.5c-.2,.3,0,.2,-.3,.4c-.7,-.1,0,-.1,-.7,-.1c-.7,0,-.5,-.2,-1.2,-.5c-1.3,-.7,-.1,-2.3,-4.1,-3.9c-.6,-.2,-.8,-.8,-2,-1.5q-.6,-.3,-.9,-.9c-.3,-.3,-.7,-.6,-.8,-.9c-.1,-.4,.1,-1.2,.1,-1.7c0,-.4,-.1,-1.4,0,-1.6c.1,-.7,1,-1.7,1.5,-2.1c.5,-.3,.5,-.4,.9,-.9c.2,-.3,.6,-.6,.8,-.9c.8,-.9,1.4,-1.1,2.4,-2.1c.2,-.2,.4,-.3,.5,-.4c.2,-.2,.2,-.3,.4,-.5c.4,-.3,.7,-.4,1,-.8c.1,-.1,0,0,.2,-.3c.3,-.4,.7,-.6,1,-1c.7,-1.1,1.3,-2.5,1.6,-3.9c.3,-1.2,1.1,-3.3,.5,-4.6c-.1,-.1,-.7,-.9,-.8,-1c-.2,-.3,-.6,-.5,-1,-.7c-1.9,-.9,-3.8,0,-5.4,1c-.7,.5,-.5,.4,-1,.8l-1,.7c-.5,.4,-1.1,.7,-1.6,1c-.8,.4,-1,.7,-1.5,1.2c-.7,.6,-1,1.1,-2,1.5c-.9,.4,-1.4,.7,-2,1.5c-.3,.6,-.4,.5,-.8,.9c-.2,.1,-.3,.3,-.5,.4c-.2,.3,-.2,.2,-.5,.4c-.4,.4,-.2,.5,-.8,.9c-.9,.5,-.9,1.3,-1.8,1.7c-.5,.3,-.6,.5,-1,.8c-.4,.3,-.7,.4,-1.1,.7c-1.1,.8,-.7,.7,-1.9,1.5c-.9,.6,-1.7,1.8,-2.8,2.6c-.4,.4,-.4,.5,-.9,.8c-.4,.2,-.5,.7,-.9,1c-.2,.1,-.3,.1,-.5,.3c-.6,.4,-.8,.9,-1.5,1.1c-1.3,.6,-.9,.9,-1.7,1.8c-.7,.8,-1.1,1.8,-1.5,2.1c-.3,.2,-.6,.6,-.9,.7c.2,.6,0,1.4,-.1,2.3c-.1,1.1,-.3,1,-.7,1.8c-.7,1.6,-.3,.7,-.9,1.6c-.2,.3,-.4,.5,-.6,.7c-.6,.5,-.7,-.1,-.9,.5c-.3,1,.2,.9,-1.3,.9c-.1,.2,-.1,.3,-.3,.5c-.6,0,-1.6,-.3,-2.1,-.6c-.7,-.4,-1.7,-2.4,-2,-3.3c-.3,-.9,-.2,-1,-1.1,-1.4l.3,-.5c-.4,-.3,-.3,-.5,-.8,-.8c-.4,-.2,-.6,-.3,-.8,-.7c-.4,-.7,-.9,-.9,-1.3,-1.6c-.2,-.3,-.4,-.6,-.6,-.9c-.9,-1.1,-2,-1.8,-2.2,-2.2c-.3,0,-1,.1,-1.2,.2c-.2,.7,-.1,.5,.1,1c-.2,.3,-.2,.1,-.4,.5c.2,.1,.3,.2,.3,.3h-.7l-.1,-.2q0,-.1,0,-.2V346c0,0,-.2,-.1,-.2,-.1c0,0,-.1,0,-.1,0l-.1,.1c0,0,-.1,0,-.1,0c0,0,0,.1,0,.1l.1,.4c-.4,-.1,-.2,-.1,-.6,-.1c.2,-.3,.1,-.1,.1,-.4c-.3,-.3,-.1,-.3,-.6,-.4c0,0,.2,-.1,.2,-.1c.5,-.4,-.7,-.4,-1,-.4c.1,-.3,.2,-.2,.3,-.4c-.2,-.3,-.1,-.1,-.2,-.3l.8,-.1c-.1,-.4,.1,-.4,-.6,-.3c-.8,.1,-.5,-.1,-1.1,.3c-.1,.2,-.3,.2,-.6,.2c0,1.1,-.3,.1,-.2,1.1c.9,-.4,.9,-.1,1,.1c-.3,.1,-.4,0,-.9,.1l.3,1.7v.1c.2,-.2,.1,-.1,.2,-.3c0,0,0,-.1,.1,-.1v-.1c.4,.6,.3,.4,-.2,.8c.1,.5,0,0,.3,.5c-.2,.2,-.6,.3,-.1,.5c.4,.1,.4,-.2,.7,.2c-.2,.2,-.4,.1,-.7,.1c.2,1.2,.3,.4,.7,1l.4,.4c.5,.5,-.2,.2,.5,1.2c-.4,.4,-.1,.2,-.3,.7c-.2,.4,-.2,.1,-.3,.7c-1.3,.1,-.7,.1,-1.7,0c-.4,.5,-.4,.6,-.5,1.4c-.1,.9,-.4,.7,-.8,1.1c-.2,.3,0,.2,-.4,.6c-.7,.6,-.5,1.3,-.6,2.3c.3,-.1,.5,-.1,.8,-.1c-.1,.3,.1,.1,-.4,.3l.1,.6l-.4,.2c.1,.3,0,.5,.2,.9c.2,-.3,-.4,.7,0,0c-.1,0,-.1,.1,-.2,.2c-.1,.1,-.2,.2,-.1,.5c0,.2,.1,.1,.1,.4c0,0,-.1,.2,-.1,.3c0,0,0,.1,0,.1l.4,.1l-.2,.4c0,0,-.1,0,-.1,0q.1,.2,.1,.3q.1,.1,.1,.2c-.2,-.5,.2,.2,0,0c-1.1,-.2,0,-.4,-.7,-.7c-.2,.2,-.1,.2,-.2,.4v.2c0,-.1,0,0,-.1,0l-.4,-.1c0,-.4,0,-.1,.1,-.3c0,-.1,0,-.2,0,-.3c.1,-.2,.2,-.4,.1,-.6c-.3,-.1,-.5,.1,-1,0c.1,-.4,.1,-.2,.4,-.3l-.4,-.7c-.5,.1,-.3,0,-.7,.3c-.3,.4,-.2,.1,-.3,.7c-.7,-.1,.1,-.1,-.9,0c-.8,.2,-1.7,-.1,-2.8,0q-.1,0,-.1,0l-.1,-.3c-.1,-.1,0,0,-.1,-.2c-.2,.2,-.2,.4,-.3,.7c.5,-.2,.3,0,.8,.1c.3,0,.1,-.1,.4,-.1c.4,.1,.2,-.1,.4,.3c-.3,.3,0,.1,-.4,.1c-.6,.1,-.7,-.1,-.6,.7c-.1,-.1,-.2,-.2,-.2,-.2c0,.6,.6,.2,1.1,.5c-.3,.2,-.8,.3,-1.2,0c-.4,-.2,.2,-.1,-.3,-.3c0,0,0,.1,0,.1c0,0,0,.1,0,.1c-.1,0,-.1,.1,-.1,.1c-.1,.3,0,.4,0,.7c-.9,0,-.5,0,-1.1,.2c-.2,-.5,.1,-.5,-.5,-.7c-.2,-.1,-.3,-.1,-.4,-.1c-.3,0,-.1,.1,-.3,-.1c.3,-.2,.3,0,.5,-.3c-.4,-.2,-1.2,-.1,-.6,-1.1c-.5,-.4,-.3,-.6,-.7,-1c-.2,-.2,0,0,-.1,-.2c-.3,-.2,-.4,-.2,-.6,-.4c-.6,-.3,-1,-.6,-1.7,-.6c0,-.1,-.1,-.3,-.1,-.4c-1.7,-.1,-.4,-.4,-1.9,-.5c-.4,-.1,-.3,-.2,-.8,-.2c-.8,-.1,-1.6,-1.2,-2.7,-.4c-.5,.3,-.7,.6,-.8,1.5c.3,-.1,-.3,.1,0,0h-.1l-.2,.9l.3,.1c.1,0,-.1,-.2,.2,0c-.3,.4,-.2,.1,-.2,.7c-.6,-.1,-.2,-.2,-.6,.3c-.2,.2,-.4,.2,-.4,.5c-.2,1.5,-.2,.7,-.5,1.5c-.2,.4,-.1,1.6,-.2,1.8c-.2,.5,-.3,.6,.1,1.3c-.5,.4,-.5,1,-.5,1.6c.6,.1,.7,0,1.1,.4c-.4,.1,-.3,-.1,-.7,-.1c-.5,0,-.4,.1,-.8,.1c-.1,.9,-.2,1.4,-.3,2.1c-1.9,.2,-2.6,2.9,-2.6,4.6c-.1,1.7,-.2,1.8,.3,3.1c.2,.4,.4,.9,.6,1.2c.3,.3,.3,.7,.6,1.1c0,.4,-.1,.7,-.1,.9l.3,.7c-.3,.4,-.3,.9,-.2,1.4c0,.5,.1,.3,.1,.6l.1,.4c0,0,0,.1,0,.1q-.5,0,-.8,.3l.4,.3q-.1,0,-.1,0c0,0,-.1,0,-.1,0l-.1,.1c-.2,.1,-.1,0,-.2,.1c-.2,2.4,.4,1.6,.4,2.7c-.4,.4,-.4,1,-1,1.1c-.3,.1,-1.1,-.5,-1.5,-.6c-1.6,-.7,-3.7,-1,-5.3,-.3c-.9,.4,-.4,.6,-1.6,.4c-.9,-.2,-1.1,0,-1.9,.2c-1.5,.3,-4.1,-.3,-6.1,.1c-1.1,.2,-2.1,.8,-3.1,1.1c-.4,.1,-1.4,.4,-1.8,.4c-.3,0,-.6,0,-1,0c-1.5,.4,-.7,.4,-2.5,-.2c-.5,-.1,-1.2,0,-1.8,-.1c-.5,.7,.4,.2,-1.5,.4l-1.2,.2c-.1,.1,-.2,.1,-.3,.1c0,0,0,.1,0,.1c.5,-.1,-.2,.1,0,-.1c-.8,-.7,-.8,-.5,-.8,.6l-.7,.1v.9c-.9,.3,-1.3,1.2,-.6,2.1c-.3,.3,-.1,0,-.3,.3c.3,.7,.1,1.3,.2,1.8c.2,.5,.3,0,.4,.8c0,.3,0,.5,.1,.8c.1,.4,.7,1.1,.9,1.3c.2,.2,1,.6,1.5,.7c2.7,.7,5.1,.2,7.7,0c.7,-.1,1.4,-.1,2.1,-.1c.6,-.1,1.1,-.3,1.7,-.3c.7,-.1,1.3,-.1,1.9,-.2c.7,-.1,1.5,.1,2,0c.3,-.1,.5,-.2,.9,-.3c.9,-.1,1.9,.1,2.7,-.4c.2,-.1,.3,-.2,.6,-.4c.4,-.3,.3,-.3,.5,-.7c.3,-.5,.2,-.2,.7,-.4c.3,-.2,.2,-.2,.6,-.4c.9,.1,.5,.4,1.2,.6c.8,.4,3.2,.3,4.4,-.3c.6,-.3,.4,-.3,.9,-.8c.6,-.6,1,-.4,1.7,-1.6c.2,-.2,.7,-.8,.9,-.9c.8,-.2,2.2,.5,2.7,.9c.5,.4,.5,1.7,.9,2.5c.6,1.5,1.7,2.3,2,3c.9,2.4,-1.3,.8,-2.5,1.5c-1,.6,-.8,.3,-1.6,1.3c-.8,1,-1.1,.7,-1.9,1c-.4,.2,-.4,.4,-.9,.5c-.4,.1,-.9,0,-1.3,.1c-.6,.1,-.5,.2,-1.1,.3c-1.3,.2,-1.8,.3,-3,1.2c-.6,.4,-1.8,1.1,-2.6,.2c-.6,-.8,.3,-2.1,-1.1,-1.7c-.4,.1,-.5,.1,-1,.1c.2,.4,.2,.1,.4,.4q-.2,0,-.4,0c-.3,-.1,-.8,-.2,-1.1,-.1c0,.3,.1,.2,.2,.4q.1,.1,.1,.1v.1c-.8,-.1,-.7,-.3,-.8,.5c-1.7,.3,-2,1.2,-2.7,1.9c-.4,.3,-.5,.5,-.7,.9c-.2,.4,-.1,.6,-.4,1c-1,1.4,-.8,3,.1,4.4c1.1,1.5,2.2,2.5,4.2,2.5c1.5,0,2.5,-.6,3.7,-1.2c1.1,-.5,1.1,-.7,2,-1.3c.2,-.2,.7,-.3,1,-.5c1.8,-.9,1.3,.1,2.6,-.2c.3,-.1,1,-.3,1.3,-.5c1,-.5,2.4,-.8,3.3,-1.4c2.3,-1.5,.5,-2.3,4.2,-2.4c.8,0,.8,-.1,1.4,-.2c.8,-.3,3.2,-.6,3.5,-1.4c.4,-1,-.3,-1.4,-.3,-2.1c.5,-.1,.8,.1,1.1,.3c.4,.4,.2,.4,.7,.8l1.2,.8c.1,.1,.2,.3,.3,.5c.8,.1,1.8,0,2.4,.3c.4,.1,3.2,-.5,3.8,-.7c.8,-.2,1.9,-.2,2.8,-.4c1,-.2,1.1,-1,1.6,-1.1c.8,-.3,1.3,.1,2.2,-.4c.6,-.4,.8,-.6,1.2,-.9l1.3,-.7c.5,-.1,.7,0,.8,-.6c.9,0,.3,-.1,1,-.5c.4,-.1,.8,-.2,1.1,-.4c.2,-.2,.7,-.5,1,-.5c.8,-.1,1.9,-.2,2.6,-.5c.5,-.3,.1,-.4,1,-.5c3.2,-.5,4,-2.4,5.7,-3.4l1.6,-1.6c.8,-.8,.3,-1.3,1.7,-1.2c.3,.6,-.2,.2,.5,.5c.3,.1,.4,.1,.6,.3c.4,.3,.8,.4,1.3,.5c.2,.2,.2,.3,.4,.4c0,0,.2,.1,.4,.1c.5,.3,.5,.7,1.1,.4c.5,-.2,.8,-.5,1.1,0c-.1,.1,-.1,0,-.4,0c-.3,.1,0,-.2,-.2,.2l.6,.2c.6,.4,.4,-.1,1.6,0l.3,-1.2c.1,.3,.1,.4,.4,.6c.2,.2,.2,.1,.2,.3c-.2,.1,-.3,0,-.5,.2c0,.2,.1,.3,.1,.5l.3,-.3c.3,.1,.6,.7,.5,-.5l.5,-.1c.1,.2,0,0,.1,.2c0,.3,.1,.4,.4,.5c.1,0,0,0,.1,0l.3,.3c.4,-.2,.1,-.4,.8,-.4c.2,.5,-.3,.5,.5,.4l-.1,-.5c.4,.1,.2,.1,.7,.1c0,0,.3,0,.3,0c.4,0,.3,.2,.4,.4c.3,.2,.3,0,.9,.6c.5,.6,.6,.5,1.2,.9c1.6,1.1,2.6,-.1,3.4,.7c.9,1,.8,.9,2,1.2c1.4,.4,1.1,.8,2.5,-.1c.7,-.5,-.1,-.7,1,-.6c-.1,-.4,-.2,-.3,-.2,-.5c.6,-.1,.1,.1,.5,.1c.3,0,0,-.1,.6,-.1c.2,0,1.1,0,1.2,.1c.3,-.5,0,-.4,.4,-.5c.1,.7,-.2,1.4,.4,1.9c.1,.1,0,.1,.2,.2c1.4,.8,2.7,.2,3.6,-.4c1.4,-1,.6,-1.4,1.5,-2.3c.5,-.5,1.4,-1.5,2.1,-1.4c.1,1.8,-2.4,1.5,-1.6,3.5c.6,1.3,1.9,1.9,3.2,2.1c2.2,.4,2.2,-.7,2.7,-.6c.4,.2,.3,.4,.6,.5c.4,.2,.4,.1,.7,.4c1,1.3,.6,.8,1.8,1.4c.6,.4,1.5,.3,2.3,.8c.7,.4,2.4,.9,3,1.3c1.2,1,3.3,1,4.7,1.6c1.1,.5,4.6,.1,5.6,-.3c.6,-.2,1.2,-1,1.7,-1.5q.2,-.3,.4,-.6c.9,-1.3,1.1,-3.5,.2,-5c-.8,-1.5,.6,-.9,-1.8,-2.5c-.2,-.1,-.8,-.8,-1.1,-.9c-1.8,-.9,-4.4,-.5,-5.6,-.8c-.7,-.2,-.6,-.4,-1.6,-.4c-1.3,-.1,-.8,.2,-1.7,.3c-.7,.2,-1.2,0,-1.8,-.1c-.8,-.2,-1.1,-.3,-1.9,-.2c-1.2,.2,-.9,-.3,-1.6,-.4c-1.1,-.1,-1,.1,-1.5,-.6c-1.1,-1.6,-3.8,-.4,-5,-.5c-.1,-1,.5,-1.5,.7,-3.4c.2,-1.2,1,-.9,1.5,-1.5c1.7,-2,1.5,-3.9,2.4,-4.6c.4,-.3,.8,-.4,1.5,-.2c.1,0,.4,.6,1.3,1.2c1,.6,2.2,1.4,3.3,1.6c.5,.2,1.4,.4,2,.4c.9,-.1,1.1,-.5,1.6,-.9c.9,-.8,.7,-.4,1.7,-.3c.7,0,1.4,0,2.2,.1c3.3,.4,2.3,-.5,4.3,-.3c2.4,.1,2.1,.2,4.2,.8c.5,.1,1.6,.1,2.2,.2c3.4,.3,5.4,.8,7.7,-1.3c.3,-.3,.3,-.4,.7,-.7c.6,-.5,1.1,-1.4,1.2,-2.4c.6,-2.7,1.1,-3.5,-.4,-6c-.3,-.5,-.8,-.8,-1.2,-1.1c-1,-.8,-2.8,-.9,-4,-.8c-1.1,.1,-1.2,.2,-2.1,.3c-.7,.1,-1.4,.3,-2,.3c-1,.1,-1.5,-.1,-2.4,.1c-.7,.1,-1.1,.4,-1.8,.5c-.8,.1,-1.4,-.1,-2.3,.2c-.9,.3,-2,.2,-3,.4c-.4,.1,-.5,.2,-.9,.3c-.4,0,-.8,0,-1.1,0c-.4,.1,-.7,.1,-1,.2c-.4,-.2,0,-.5,-1.5,-.5c-.6,0,-1.2,-.1,-1.8,-.1c-.2,-.6,0,-.5,0,-.7l-.1,-.5c-.1,-.3,-.3,-1.2,-.3,-1.4c.2,-.1,.1,-.1,.3,-.2c.3,-.1,2,-.1,2.2,.1c.3,.1,.3,.4,.4,.6h.4c.2,-.2,.2,-.5,.3,-.6c.4,-.3,.3,0,.8,-.2c.7,-.3,1.8,-1,2.6,-1c.2,0,.6,.1,.9,.1c.6,.1,.1,0,.5,.2c.7,-.5,1.3,-.7,2.2,-.7c.8,0,1.7,-.2,2.6,-.3c.5,-.1,.7,-.2,1.1,-.3c.7,-.2,1.3,-.1,1.9,-.3q.2,-.1,.4,-.2c.4,-.1,.9,-.2,1.2,-.2c.8,-.2,2,.1,2.7,-.1c.3,-.2,.1,-.2,.6,-.3l1.8,-.2c1.1,0,1.5,-.2,2.4,-.4c.4,-.1,.8,-.1,1.2,-.2c.5,-.2,.4,-.3,1,-.4c.8,-.1,.7,-.1,1.1,-.3c1.1,-.5,1.7,-1.1,2.2,-2.2c.4,-.9,.3,-1.5,.5,-2.6c0,-.4,.2,-.9,.2,-1.3Z" class="g3_1"/>
    <path fill-rule="evenodd" d="M226.4,383.3c1.4,-.8,1,.1,2.2,-.3c.4,-.1,1.1,-.4,1.5,-.3c.4,.1,.1,.2,.8,.2c.4,-.1,.5,0,.8,0c.7,0,.5,-.3,1.5,.1c.7,.3,1,.3,1.6,-.2c.3,-.3,.3,-.1,.7,-.2c.4,-.2,.2,-.2,.4,-.5c.9,.1,.9,.6,2.1,-.6c.6,0,.5,.4,1.1,.5c.3,0,1,.1,1.2,.3c.4,.3,-.1,.6,.7,.8c.4,.1,.9,.1,1.3,.2c.6,.2,2.1,.4,2.7,.3l1.2,-.2c.5,-.2,.5,-.4,.8,-.7c.7,-.5,.4,.1,.6,-1c.1,-.1,.2,-.5,.3,-.6l.3,-.4c.5,-.3,.6,-.3,.9,-.5c.9,-.7,1.7,-1.3,1.7,-3c0,-.9,-.4,-1.6,-.8,-2.3c-.7,-1.3,-2,-2.1,-3.4,-2.7c-1.5,-.5,-3.8,-.4,-5.4,-.2c-1.7,.2,-4.4,-1,-8,.4c-.8,.3,-1.2,.8,-1.3,1.8c-.3,.1,-.9,-.1,-1.3,-.1c-1.2,.1,-.8,.2,-1.3,.4c-.9,.3,-.3,-.3,-1,.6l-1,.6c-.2,-.4,-.2,-.7,-.5,-1c-.8,-.5,-1.6,-.2,-2,.4c-.6,.7,-.1,.7,-.6,.8c-.5,-.2,0,-.1,-.3,-.7c-.8,-.1,-.6,.8,-.7,1.5c-.7,0,-.9,-.4,-1.5,0c-.7,.3,-1.6,.1,-2.5,.3h-2.4c-.2,.3,0,.2,-.3,.4c-.8,0,-1.7,-.2,-2.3,.2c-.5,1,-.2,2,-.3,3l.5,.2c-.2,.3,0,0,-.3,.3c.2,.2,.1,.1,.2,.4c-.4,.3,-.2,0,-.5,.5c-.4,.7,-.2,1.4,.5,1.9c1.4,.9,1.4,.6,3.2,.8c1.2,.1,2.4,.3,3.7,.1c1.3,-.1,4,-.9,5.2,-1.5Z" class="g2_1"/>
    <path d="M226.4,383.3c1.4,-.8,1,.1,2.2,-.3c.4,-.1,1.1,-.4,1.5,-.3c.4,.1,.1,.2,.8,.2c.4,-.1,.5,0,.8,0c.7,0,.5,-.3,1.5,.1c.7,.3,1,.3,1.6,-.2c.3,-.3,.3,-.1,.7,-.2c.4,-.2,.2,-.2,.4,-.5c.9,.1,.9,.6,2.1,-.6c.6,0,.5,.4,1.1,.5c.3,0,1,.1,1.2,.3c.4,.3,-.1,.6,.7,.8c.4,.1,.9,.1,1.3,.2c.6,.2,2.1,.4,2.7,.3l1.2,-.2c.5,-.2,.5,-.4,.8,-.7c.7,-.5,.4,.1,.6,-1c.1,-.1,.2,-.5,.3,-.6l.3,-.4c.5,-.3,.6,-.3,.9,-.5c.9,-.7,1.7,-1.3,1.7,-3c0,-.9,-.4,-1.6,-.8,-2.3c-.7,-1.3,-2,-2.1,-3.4,-2.7c-1.5,-.5,-3.8,-.4,-5.4,-.2c-1.7,.2,-4.4,-1,-8,.4c-.8,.3,-1.2,.8,-1.3,1.8c-.3,.1,-.9,-.1,-1.3,-.1c-1.2,.1,-.8,.2,-1.3,.4c-.9,.3,-.3,-.3,-1,.6l-1,.6c-.2,-.4,-.2,-.7,-.5,-1c-.8,-.5,-1.6,-.2,-2,.4c-.6,.7,-.1,.7,-.6,.8c-.5,-.2,0,-.1,-.3,-.7c-.8,-.1,-.6,.8,-.7,1.5c-.7,0,-.9,-.4,-1.5,0c-.7,.3,-1.6,.1,-2.5,.3h-2.4c-.2,.3,0,.2,-.3,.4c-.8,0,-1.7,-.2,-2.3,.2c-.5,1,-.2,2,-.3,3l.5,.2c-.2,.3,0,0,-.3,.3c.2,.2,.1,.1,.2,.4c-.4,.3,-.2,0,-.5,.5c-.4,.7,-.2,1.4,.5,1.9c1.4,.9,1.4,.6,3.2,.8c1.2,.1,2.4,.3,3.7,.1c1.3,-.1,4,-.9,5.2,-1.5Z" class="g3_1"/>
    <path fill-rule="evenodd" d="M226.2,358.8c1.5,.8,2.7,.8,4.6,.8c2.5,.1,1.8,1.3,4.1,1.4c1.8,.1,1.9,1.3,5.5,1.1c.7,0,.4,.2,.9,.4c.9,.3,1.5,-.3,2.3,0c2.1,1,.5,1,3.9,1.2c.2,.3,.2,-.3,.2,.4c.2,-.1,.8,0,1,.1c.8,.1,.5,.2,.8,-.4c.3,.1,.2,.2,.4,.3c.4,-.4,.7,-.4,1.5,-.3l.4,-.6c1,.4,1.2,.1,2,-.4c.3,-.1,.6,-.2,.8,-.5c.2,-.4,.2,-.6,.7,-.6c.1,.2,.1,.1,-.1,.5h.5c.1,-.3,.2,-.7,.2,-1.1c.8,0,-.1,.2,.6,.1c.1,-.8,.3,-1.5,-.2,-1.7c-.3,.5,.4,1.4,-.4,1.2c-.3,-.1,.1,0,-.2,-.1c0,0,-.1,0,-.1,0c-.5,-.1,-.5,.2,-.6,-.2c.2,-.1,.4,0,.8,0l.2,-1.1l.4,-.2c.1,-.7,.7,-1.8,-1.4,-2.7c-1.6,-.6,-2.9,-1.5,-4.9,-1.7c-1.9,-.1,-2.7,-.9,-3.5,-.1c-.9,.9,-.1,1.2,0,1.3c-.7,0,-.5,-.1,-1.2,0v-.1c0,0,0,-.1,0,-.1l-.1,-.2c-.5,-.1,-.7,-.3,-1.2,-.4l.2,-1.1c-.3,-.2,-1.2,-.7,-1.7,-.8c-1,-.2,-.2,.1,-1,-.3c-.2,0,-.9,-.1,-1.1,-.2c-.4,0,-.8,0,-1.2,-.1c-.6,-.1,-.4,-.1,-.9,-.2c-.5,0,-.7,-.2,-.8,-.2c0,0,-.1,0,-.1,0c0,0,.1,0,-.1,0c-.9,.2,-.5,0,-.6,-.1c-.2,-.2,.4,-.2,-.2,-.2c-.4,.1,-.1,.2,-.6,.4c-.4,.1,-.8,0,-1.2,-.2c-1.1,-.4,0,.1,-1.3,-.7l-.7,-.4c-.5,-.4,.1,-.2,-.4,-.5c-.3,-.1,-.1,.1,-.4,-.2c-.5,-.4,.1,-.2,-.7,-.5c-.6,-.1,-.3,-.1,-1,-.1q.2,-.3,.1,-.4c-.2,.1,-.9,-.2,-1.4,-.3c-1.2,0,-1.4,-.5,-2.3,-.2c-.9,.2,-1,-.2,-1.2,.4c-.1,.3,.1,0,-.1,.3c-.6,0,-.9,-.1,-1.2,.3c-.8,1.1,-.7,.4,-1.3,1.4c-.6,1,-.9,2.1,-.6,3.4c.5,2.1,2.2,3.3,3.9,4.2Z" class="g2_1"/>
    <path d="M226.2,358.8c1.5,.8,2.7,.8,4.6,.8c2.5,.1,1.8,1.3,4.1,1.4c1.8,.1,1.9,1.3,5.5,1.1c.7,0,.4,.2,.9,.4c.9,.3,1.5,-.3,2.3,0c2.1,1,.5,1,3.9,1.2c.2,.3,.2,-.3,.2,.4c.2,-.1,.8,0,1,.1c.8,.1,.5,.2,.8,-.4c.3,.1,.2,.2,.4,.3c.4,-.4,.7,-.4,1.5,-.3l.4,-.6c1,.4,1.2,.1,2,-.4c.3,-.1,.6,-.2,.8,-.5c.2,-.4,.2,-.6,.7,-.6c.1,.2,.1,.1,-.1,.5h.5c.1,-.3,.2,-.7,.2,-1.1c.8,0,-.1,.2,.6,.1c.1,-.8,.3,-1.5,-.2,-1.7c-.3,.5,.4,1.4,-.4,1.2c-.3,-.1,.1,0,-.2,-.1c0,0,-.1,0,-.1,0c-.5,-.1,-.5,.2,-.6,-.2c.2,-.1,.4,0,.8,0l.2,-1.1l.4,-.2c.1,-.7,.7,-1.8,-1.4,-2.7c-1.6,-.6,-2.9,-1.5,-4.9,-1.7c-1.9,-.1,-2.7,-.9,-3.5,-.1c-.9,.9,-.1,1.2,0,1.3c-.7,0,-.5,-.1,-1.2,0v-.1c0,0,0,-.1,0,-.1l-.1,-.2c-.5,-.1,-.7,-.3,-1.2,-.4l.2,-1.1c-.3,-.2,-1.2,-.7,-1.7,-.8c-1,-.2,-.2,.1,-1,-.3c-.2,0,-.9,-.1,-1.1,-.2c-.4,0,-.8,0,-1.2,-.1c-.6,-.1,-.4,-.1,-.9,-.2c-.5,0,-.7,-.2,-.8,-.2c0,0,-.1,0,-.1,0c0,0,.1,0,-.1,0c-.9,.2,-.5,0,-.6,-.1c-.2,-.2,.4,-.2,-.2,-.2c-.4,.1,-.1,.2,-.6,.4c-.4,.1,-.8,0,-1.2,-.2c-1.1,-.4,0,.1,-1.3,-.7l-.7,-.4c-.5,-.4,.1,-.2,-.4,-.5c-.3,-.1,-.1,.1,-.4,-.2c-.5,-.4,.1,-.2,-.7,-.5c-.6,-.1,-.3,-.1,-1,-.1q.2,-.3,.1,-.4c-.2,.1,-.9,-.2,-1.4,-.3c-1.2,0,-1.4,-.5,-2.3,-.2c-.9,.2,-1,-.2,-1.2,.4c-.1,.3,.1,0,-.1,.3c-.6,0,-.9,-.1,-1.2,.3c-.8,1.1,-.7,.4,-1.3,1.4c-.6,1,-.9,2.1,-.6,3.4c.5,2.1,2.2,3.3,3.9,4.2Z" class="g3_1"/>
    <path fill-rule="evenodd" d="M270.1,328.9l.2,.2c-.5,.8,-.4,1.7,-.4,2.7l.3,.4c-.2,.1,-.2,0,-.3,.2l.5,.2v.1q-.1,0,-.1,0q0,.1,0,.1c-.1,.3,0,.6,0,.9l.4,.3c0,.5,-.2,.9,.1,1l.3,.2c0,0,.1,0,.1,0c.2,-.2,-.3,.5,0,0c0,0,-.1,.1,-.1,.2c-.2,.1,-.1,-.1,-.2,.2c.8,.5,.4,.5,.9,1.1c.5,.5,.7,1.2,1.1,1.9c.2,.3,.2,.2,.3,.7c.2,1,.3,.7,.8,1.2c.1,.8,.1,.4,.3,.9l.4,1.1c.1,0,.1,.1,.2,.1c.2,.4,.3,1,.8,1.2c.3,0,.6,0,.9,0c.7,.1,0,.1,.6,.3c.4,-.1,.3,-.2,.8,-.2c.6,-.1,.7,0,.7,-.6c.2,.1,.1,.1,.3,.1c.3,0,.1,0,.3,-.2l.8,-.3c.3,0,.2,.1,.6,.1c.1,0,.2,-.3,.2,-.3l.3,-.4l.1,-.1v-.1l.2,-.1c-.1,-.1,0,0,-.2,-.1l-.2,-.1c.1,-.1,.3,-.1,.4,-.3c-.2,-.5,-.4,0,-.8,-.5c.8,-.8,.3,-.6,.3,-1.5h-.5c-.1,-.6,.1,-.4,-.2,-.7c.2,-.2,.2,-.1,.2,-.4c-.4,-.3,-.2,0,-.3,-.3c.4,-.5,.2,.1,.4,-.7c0,-.2,0,-.3,.1,-.4c.1,-.3,.1,-.2,.2,-.3c.1,-.4,.1,-.9,.5,-1.7c.4,-.9,-.5,-2.3,-.9,-3.1c-.3,-.7,-.6,-2,-1.4,-2.8c-.7,-.9,-1.2,-1.3,-1.6,-2.6l-.6,-1.5c-.2,-.9,.1,-.8,-.5,-1.5c-.8,-.8,-1,-2.1,-1.9,-2.3c-1.8,-.5,-2.1,.5,-2.8,1.3c-.6,.8,-.3,.8,-.5,1.8l-.2,.6c-.1,.1,-.2,0,-.1,.5l.1,.1v.1c-.5,.3,-.4,.2,-.4,1.1l-.3,.2l.2,.4c0,0,-.1,0,-.1,0l-.2,.2c.3,.2,.3,-.1,.3,.4c-.3,.2,-.2,0,-.4,.3c.1,.3,-.1,0,.1,.2c.4,.2,.2,-.3,.3,.2c-.2,.1,-.3,.1,-.5,.2c0,.1,0,0,.1,.1Z" class="g2_1"/>
    <path d="M270.1,328.9l.2,.2c-.5,.8,-.4,1.7,-.4,2.7l.3,.4c-.2,.1,-.2,0,-.3,.2l.5,.2v.1q-.1,0,-.1,0q0,.1,0,.1c-.1,.3,0,.6,0,.9l.4,.3c0,.5,-.2,.9,.1,1l.3,.2c0,0,.1,0,.1,0c.2,-.2,-.3,.5,0,0c0,0,-.1,.1,-.1,.2c-.2,.1,-.1,-.1,-.2,.2c.8,.5,.4,.5,.9,1.1c.5,.5,.7,1.2,1.1,1.9c.2,.3,.2,.2,.3,.7c.2,1,.3,.7,.8,1.2c.1,.8,.1,.4,.3,.9l.4,1.1c.1,0,.1,.1,.2,.1c.2,.4,.3,1,.8,1.2c.3,0,.6,0,.9,0c.7,.1,0,.1,.6,.3c.4,-.1,.3,-.2,.8,-.2c.6,-.1,.7,0,.7,-.6c.2,.1,.1,.1,.3,.1c.3,0,.1,0,.3,-.2l.8,-.3c.3,0,.2,.1,.6,.1c.1,0,.2,-.3,.2,-.3l.3,-.4l.1,-.1v-.1l.2,-.1c-.1,-.1,0,0,-.2,-.1l-.2,-.1c.1,-.1,.3,-.1,.4,-.3c-.2,-.5,-.4,0,-.8,-.5c.8,-.8,.3,-.6,.3,-1.5h-.5c-.1,-.6,.1,-.4,-.2,-.7c.2,-.2,.2,-.1,.2,-.4c-.4,-.3,-.2,0,-.3,-.3c.4,-.5,.2,.1,.4,-.7c0,-.2,0,-.3,.1,-.4c.1,-.3,.1,-.2,.2,-.3c.1,-.4,.1,-.9,.5,-1.7c.4,-.9,-.5,-2.3,-.9,-3.1c-.3,-.7,-.6,-2,-1.4,-2.8c-.7,-.9,-1.2,-1.3,-1.6,-2.6l-.6,-1.5c-.2,-.9,.1,-.8,-.5,-1.5c-.8,-.8,-1,-2.1,-1.9,-2.3c-1.8,-.5,-2.1,.5,-2.8,1.3c-.6,.8,-.3,.8,-.5,1.8l-.2,.6c-.1,.1,-.2,0,-.1,.5l.1,.1v.1c-.5,.3,-.4,.2,-.4,1.1l-.3,.2l.2,.4c0,0,-.1,0,-.1,0l-.2,.2c.3,.2,.3,-.1,.3,.4c-.3,.2,-.2,0,-.4,.3c.1,.3,-.1,0,.1,.2c.4,.2,.2,-.3,.3,.2c-.2,.1,-.3,.1,-.5,.2c0,.1,0,0,.1,.1Z" class="g3_1"/>
    <path fill-rule="evenodd" d="M289.8,345.2l-.4,.5c.9,.5,.8,.5,1.1,1.5c.2,.8,1,2.9,1.7,3.4c.4,.3,1.4,.7,2.1,.7c.1,-.2,.1,-.3,.3,-.4c1.4,.1,1,.1,1.3,-.8c.2,-.6,.3,0,1,-.5c.2,-.2,.4,-.3,.6,-.6c.6,-.9,.2,0,1.1,-1.5c.4,-.8,.6,-.7,.8,-1.8c.2,-.8,.4,-1.7,.2,-2.3c-.5,-.6,-1.1,-1.3,-1.8,-1.8c-.4,-.2,-.7,-.1,-.9,-.4c0,0,-.1,-.1,-.1,-.1v-.6c.1,-1.2,.5,-2.8,.9,-3.9c.5,-1.3,.8,-4,.7,-5.3c0,-1,.2,-2.3,.5,-3.4c.3,-1.4,1,-3.3,1.2,-4.7c.1,-.6,.2,-.9,.4,-1.5c.2,-.6,.2,-1.1,.4,-1.7c.1,-.4,.1,-1.2,.3,-1.7c.2,-1.1,.1,-2.7,.5,-3.7c.4,-1.1,.5,-1.9,1,-3c.2,-.5,.3,-.8,.6,-1.3L304,309c.2,-.5,.4,-.8,.6,-1.2c.4,-.7,.1,-.7,.6,-1.3c.1,-.2,0,-.1,.1,-.3c.5,-.8,1.4,-1.7,1.8,-2.5c.2,-.4,.1,-.4,.4,-.7l.6,-.7c.4,-.6,-.3,.4,.1,-.1c.4,-.6,1.1,-1.1,1.5,-1.6c.4,-.3,0,-.1,.6,-.4c.5,-.2,.3,-.2,.5,-.4l.2,-.1q.1,-.1,.1,-.1l.4,-.4c.3,-.1,.1,.1,.4,-.1c.5,-.2,0,-.2,.5,-.4c.2,-.1,.6,-.1,.7,-.2c.4,-.2,0,0,.2,-.2c.2,-.1,.1,-.1,.4,-.1c.8,-.3,.1,-.5,1.3,-.5c.3,-.3,.2,-.4,.8,-.4q.1,0,.2,0l.8,-.1c.7,0,.7,-.6,1.3,-.2c0,0,.3,.2,.4,.2c.7,.4,0,-.2,.7,-.1c.3,.1,.3,.5,1.7,.7c.3,.1,.6,.2,1,.4c.1,-.2,0,-.3,.3,-.3c.2,.3,-.2,.2,.1,.4c.1,.1,.5,.2,.7,.2c.4,.1,.2,.2,.5,.3c.7,.3,.9,0,2.1,1.3c.4,.4,0,.3,.6,.3c-.3,-.7,-1.1,-1,-1.6,-1.5c-.3,-.2,-.4,-.2,-.7,-.4c.3,-.1,.1,.1,.2,-.2c.4,.7,0,.2,.6,.5c.7,.2,1.1,.9,1.7,1.5c.5,.5,1.5,1.6,1.8,2.3c-.5,.2,-.2,.2,-.7,1.8v.2c-.1,.5,-.5,.5,-1,.6c.2,.7,.2,.9,.6,1.6c.1,.3,.3,.6,.4,.8c.1,.3,.1,.6,.2,.9l1,1c1.3,1.2,.6,.7,2.1,.7c.7,.1,1.5,-.4,2,-.8c.1,0,.5,-.4,.6,-.5c.2,-.3,.1,-.4,.3,-.7c.4,-.8,.8,-2.8,.4,-3.5l-.4,-.7c-.1,0,-.1,-.1,-.1,-.1l-.4,-.4c-2.6,-.7,-2.2,.8,-4,-2l-1.7,-2.3c-.5,-.5,-2.2,-2,-2.9,-2.2c-.3,-.1,-.6,-.2,-.8,-.2l-1.6,-.6c-2.9,-.8,-5.3,-1.1,-8.1,.4c-1.8,1,-3.3,1.7,-4.8,3.1c-.8,.8,-.8,.7,-1.5,1.6l-1.4,1.8c-.3,.5,-.9,1,-1.1,1.6v.1c-.1,.4,-.3,.6,-.5,.8c-.3,.3,-.5,.6,-.4,1c-.6,.5,-.1,-.2,-.9,1c-1.2,2,-1.8,3.9,-2.6,6.1c-1.3,3.5,-1.7,7.3,-2.8,10.9c-.2,.6,-.4,1.6,-.5,2.2c-.4,1.8,-.7,2.8,-.9,4.7l-1.1,7.3c-.1,.5,-.1,2.3,-.5,2.4c-.2,-.2,-.1,-.1,-.1,-.6l-.1,-1.6c-.1,-.5,-.2,-.2,-.1,-.6c.2,-1,.1,-2.3,.2,-3.4c0,-.5,0,-5.7,-.2,-6.3c-.5,-1.4,-.1,-1.4,-.3,-2.9c-.1,-.5,-.1,-.3,-.2,-.7c-.2,-.6,-.3,-1.5,-.6,-2c-.2,-.3,-.1,0,-.2,-.5c-.1,-.7,-.1,-.1,-.3,-.7c-.1,-.3,-.1,-1.1,-.1,-1.5c-.3,-1.9,-.7,-3.8,-.9,-5.7c-.1,-1,-.2,-.6,-.1,-1.2c0,-.3,-.2,-1,-.2,-1.5c-.2,-1.3,-.2,-1.5,-.6,-2.7c-.5,-1.4,-1.3,-3.7,-2,-4.9c-.2,-.3,-.4,-.7,-.5,-1.1c-.3,-.6,-.5,-.6,-.8,-1c-.5,-.6,-.8,-1.5,-1.3,-2.1l-.8,-1.1c-.3,-.4,-.2,0,-.5,-.4c-.1,-.1,-.2,-.3,-.4,-.5c-.4,-.1,.2,.3,-.4,.1c-.3,-.1,-1.2,-.9,-1.4,-1.1c-.8,0,.1,.4,-1.3,-.3c.3,.2,1.1,1,1.1,1.2c-.2,0,-1.2,-.8,-1.3,-.9c-.4,-.7,.5,-.7,-1.1,-1.4c-1.1,-.5,-2.5,-1.1,-3.7,-1.3c-2.7,-.6,-2.6,-.6,-5.1,-.1c-.3,0,-.6,.1,-.9,.2c-.6,.3,-1,.4,-1.6,.7c-.7,.4,-1.6,.7,-2.2,1.2c-.3,.2,-.5,.3,-.8,.4c-1,.6,-1.9,1.3,-2.9,1.9c-.7,.4,-1.3,1.1,-1.9,1.6c-.7,.6,-1.2,1.1,-1.9,1.8c-.2,.3,-1,1.2,-1.2,1.2c-.7,0,-1.3,-.4,-1.4,-.7c-.8,.1,-.6,.1,-1.2,.5c-.2,.2,-.4,.1,-.7,.3c-.4,.3,0,.2,-.7,.2c-.2,1.8,-.8,2.5,.3,4.2c.3,.6,.8,1.7,1.3,2.1c.2,.2,.2,.1,.4,.4c.4,.5,.4,.4,1,.7c.4,.1,.4,.2,.6,.3c.4,.2,1,-.2,1.2,-.3c.1,-.7,.2,-.9,.5,-1.3c.3,-.4,.4,-.3,.6,-.7h.1c0,0,0,-.1,0,-.1c.3,-.5,.3,-.9,.4,-1.5c.1,-.7,0,-.1,-.1,-.6c0,-.4,.1,-.5,0,-.9c-.3,-.5,-.2,.1,-.4,-.8q-.2,-.6,.2,-1l2.7,-2.7c.4,-.3,4.1,-3.1,4.5,-3.6c.5,-.4,1.1,-.9,1.7,-1c3,-.8,4.2,-.3,7.1,-.3c1.8,.1,2.7,1.1,4,1.7c.1,0,.2,0,.2,.1c.3,.1,.2,.2,.6,.4q.3,.1,.6,.2l.5,.2c.4,.1,.4,.3,.9,.5c2,.8,2,1.7,3.2,3.6c.2,.3,.2,.5,.4,.9c.3,.7,1,1.7,1.4,2.5l1.9,4.6c.4,.9,.7,4.4,.9,5.6c.2,1,.1,2.3,.3,3.4c.1,.4,.2,.7,.2,1.1c.1,.4,.1,.8,.1,1.1c.1,.5,.3,.6,.3,1.1c0,1.2,.2,1.8,.3,2.8c.2,1,.1,2.1,.2,3c0,.2,.1,.6,.1,.6c0,.1,-.1,.2,-.1,.5c0,.3,0,.4,.1,.6c.1,.7,.1,2.1,0,2.9c0,1,-.8,3.4,-.6,3.6c.5,-.2,.4,-1.2,.7,-1.4c.2,.7,.4,4.2,.2,5.1c-.3,.3,-.7,.4,-1.1,.6c-.2,.3,-.1,.3,-.5,.8c-.2,.2,-.4,.5,-.5,.8l-.5,.9c-.1,.2,-.4,.5,-.5,.8Z" class="g4_1"/>

    <g id="text" style="fill:#ffffff">
        <path d="m 773.41519,340.63395 c -1.69665,-0.76917 -4.03353,-2.60459 -5.19307,-4.0787 -4.41818,-5.6168 -4.57006,-7.63221 -3.82715,-50.78524 C 764.78101,263.34651 764.86672,245 764.58545,245 c -0.28128,0 -2.66557,0.84657 -5.29843,1.88126 -14.90278,5.85668 -39.73964,7.44868 -52.78702,3.38357 -23.36766,-7.28056 -40.32682,-28.65747 -46.62048,-58.76483 -2.66126,-12.73085 -2.64367,-35.0045 0.0378,-47.84517 C 667.99361,104.97983 693.545,80 725.0286,80 c 9.37873,0 15.31434,1.706626 26.3458,7.575031 l 8.55576,4.551412 0.6352,-2.813222 c 1.79013,-7.928263 2.61985,-10.294744 4.70245,-13.412182 6.45533,-9.66296 21.26539,-8.726548 26.19227,1.656086 1.39862,2.947366 1.58002,5.116839 1.00501,12.019694 C 792.07919,94.209568 792.05061,98 792.40159,98 c 0.35099,0 2.34619,-1.078233 4.43378,-2.396073 C 811.78764,86.16497 826.40469,81.045142 840.5,80.30977 c 34.11281,-1.779714 55.56602,20.01426 61.93703,62.92087 2.01305,13.5572 2.04822,39.78002 0.0661,49.26936 -5.90699,28.27917 -23.13192,49.28147 -46.92469,57.21513 -7.42749,2.47669 -9.36761,2.69356 -24.07841,2.69155 -15.04363,-0.002 -19.4902,-0.53387 -32.71826,-3.91315 l -2.71826,-0.69441 -0.28174,42.0283 c -0.27257,40.65982 -0.34887,42.11818 -2.34353,44.78865 -1.13398,1.51819 -3.23796,3.63849 -4.67551,4.71178 -3.32329,2.48119 -11.26472,3.15703 -15.34751,1.3061 z M 839,219.95622 c 16.26429,-2.57393 26.76057,-12.89707 31.7452,-31.22157 2.42983,-8.93257 2.15428,-32.85317 -0.52756,-45.79669 -4.96148,-23.94589 -15.29834,-32.95386 -34.53258,-30.09312 -12.81495,1.90599 -20.59621,5.81259 -34.30467,17.22275 l -6.52664,5.43241 0.56157,16.5 c 0.30886,9.075 0.85426,26.72161 1.212,39.21469 l 0.65044,22.71468 6.11112,1.98309 c 7.67315,2.48998 16.68176,4.1248 27.11112,4.91995 1.1,0.0839 4.925,-0.31042 8.5,-0.87619 z m -92.83215,-2.69808 c 5.1434,-1.85942 10.20815,-4.91139 16.68804,-10.05605 l 2.35589,-1.87044 -1.15246,-34.77369 c -0.63386,-19.12553 -1.39642,-35.96265 -1.69459,-37.41582 -0.5986,-2.91744 -12.03211,-11.95794 -22.12335,-17.49299 C 735.15237,112.85783 733.59098,112.5 726.5,112.5 c -6.99952,0 -8.67017,0.3712 -13.3588,2.96815 -9.87853,5.47154 -17.46127,17.34237 -21.27432,33.30508 -1.74791,7.3173 -2.01066,10.90716 -1.62688,22.22677 0.494,14.57036 2.92003,24.29782 8.38604,33.62485 3.17561,5.41878 11.14205,12.67756 15.54651,14.16551 5.45347,1.84235 25.28831,0.89247 31.9953,-1.53222 z m 251.69893,39.68944 C 974.86089,254.43909 953.81573,243.32995 940.41736,226.62165 929.44317,212.93639 925.57581,200.91363 925.58144,180.5 c 0.007,-26.86836 7.84626,-50.16658 24.28874,-72.18972 13.25716,-17.75671 29.01607,-29.131797 47.83064,-34.525093 11.00498,-3.154637 35.37568,-3.136783 49.20458,0.03605 27.4555,6.299221 44.685,23.161271 50.7614,49.678763 2.5209,11.00117 2.5115,36.48891 -0.018,48.5 -7.8073,37.07426 -30.6554,68.60965 -57.6591,79.58225 -12.1794,4.94892 -27.7514,6.93237 -42.12312,5.36533 z m 22.67312,-33.48992 c 16.9855,-4.39548 32.6952,-21.84257 40.2834,-44.73847 3.8896,-11.73606 5.1634,-19.69859 5.1544,-32.21919 -0.017,-23.21132 -6.5482,-34.78507 -22.4546,-39.79013 C 1037.6268,104.85455 1034.1736,104.5 1022,104.5 h -14.5 l -7.52366,3.59322 c -24.19098,11.55336 -42.29922,45.18659 -40.73133,75.65208 0.5855,11.3767 4.00022,19.16052 11.8168,26.93623 11.83179,11.76992 32.62159,17.13822 49.47809,12.77613 z M 348.5,255.58836 c -3.72804,-1.65694 -7.01099,-5.16023 -8.51677,-9.08836 -0.87,-2.26958 -0.84076,-11.57408 0.1201,-38.21583 1.00451,-27.85191 1.01618,-38.20278 0.0558,-49.5 -1.79212,-21.0813 -1.21023,-20.55451 -9.44552,-8.55129 -24.61861,35.88246 -36.03691,49.27735 -59.71362,70.05049 -6.325,5.54934 -16.25147,14.67773 -22.05882,20.28531 -5.80735,5.60758 -12.55735,11.23308 -15,12.5011 -8.62083,4.47521 -20.37715,2.44096 -25.37665,-4.39104 -1.97412,-2.69772 -2.09165,-4.51504 -2.68378,-41.5 -0.34059,-21.27331 -1.20462,-56.72878 -1.92007,-78.78994 -1.2741,-39.287247 -1.26034,-40.189201 0.66974,-43.908375 C 207.16378,79.598753 212.01223,77 218.58652,77 c 6.56888,0 11.12776,2.920872 14.19363,9.093863 2.18822,4.405888 2.3215,6.119219 3.30604,42.498557 0.56424,20.84917 1.33818,46.68258 1.71985,57.40758 l 0.69396,19.5 15.04953,-15 c 20.78951,-20.72108 32.9611,-35.34531 67.41545,-81 15.89705,-21.064825 20.11316,-25.917786 24.53502,-28.241063 9.72974,-5.112074 19.64297,-2.617068 24.1681,6.082735 1.21798,2.34163 1.64092,12.723698 2.4035,58.999998 0.90795,55.09715 0.1201,95.45998 -1.96822,100.83603 -2.99091,7.6996 -13.76532,11.89431 -21.60338,8.41066 z m 264.5,0.29091 c -7.74683,-3.08 -12.09401,-11.37447 -18.80454,-35.87927 -7.3602,-26.87722 -8.8566,-33.0179 -14.21808,-58.34601 -2.65984,-12.56531 -5.03527,-23.04522 -5.27874,-23.28868 -0.24346,-0.24346 -1.92871,3.28724 -3.745,7.84602 -1.81629,4.55877 -7.09732,17.28867 -11.73563,28.28867 -4.63831,11 -11.53841,27.78449 -15.33356,37.29886 -10.67466,26.76118 -14.6753,33.82218 -21.39381,37.75949 -7.84157,4.59547 -18.63997,2.72195 -23.04303,-3.99796 -5.53596,-8.44894 -24.25355,-65.51851 -31.91572,-97.31039 -0.96103,-3.9875 -2.07725,-7.25 -2.48048,-7.25 -0.40323,0 -1.30403,2.5875 -2.00176,5.75 -0.69774,3.1625 -3.4261,12.725 -6.06302,21.25 -9.86702,31.89946 -13.24356,43.7981 -15.46577,54.5 -3.52493,16.97565 -6.11482,24.7383 -9.25215,27.73136 -5.00707,4.77684 -12.19495,6.09681 -18.55083,3.40666 -5.04769,-2.13647 -7.0027,-5.02738 -7.50626,-11.09973 -0.8869,-10.69485 2.35158,-24.40458 13.82776,-58.53829 7.6003,-22.60564 12.30855,-38.58884 15.46519,-52.5 9.87427,-43.515467 16.15989,-54.580335 31.08161,-54.714418 12.9719,-0.116563 17.15285,7.717491 25.99833,48.714418 1.89869,8.8 5.05489,21.85 7.01378,29 4.02969,14.70843 14.25988,46.61025 15.31324,47.75278 0.38171,0.41402 3.52104,-5.57888 6.97628,-13.31757 13.44871,-30.12103 25.25062,-62.07776 32.10597,-86.93521 5.37304,-19.482615 10.30491,-25.945586 20.44039,-26.786098 13.95941,-1.157623 20.79581,9.707895 26.01173,41.342038 6.69471,40.60293 11.47336,60.13998 24.17282,98.82821 6.73796,20.52682 9.30712,29.67702 8.8794,31.62442 -1.53092,6.97023 -12.90157,11.89095 -20.49812,8.8707 z m 846.4581,-0.70322 c -2.2231,-1.04056 -4.9231,-3.19336 -6,-4.78399 -1.8768,-2.77193 -1.9581,-4.88585 -1.9581,-50.89206 0,-43.79952 -0.607,-58.5 -2.4156,-58.5 -0.3618,0 -5.7442,7.38367 -11.9608,16.40815 -20.2638,29.41629 -33.0809,44.18526 -54.6236,62.94184 -8.25,7.18303 -19.275,17.17435 -24.5,22.20293 -5.225,5.02857 -11.075,9.97995 -13,11.00306 -5.1723,2.749 -14.361,2.55205 -19.5901,-0.41989 -7.8218,-4.44556 -7.4899,-2.15489 -8.4683,-58.44792 -0.4797,-27.60349 -1.3487,-62.25 -1.9309,-76.99224 -0.7357,-18.627836 -0.7406,-27.985461 -0.016,-30.677001 1.9005,-7.057766 9.1189,-10.937642 18.1065,-9.732149 5.3933,0.723393 8.465,2.943034 11.0297,7.970126 2.503,4.906303 3.1763,17.297644 4.4279,81.493094 0.5258,26.97131 1.0434,37.25 1.8755,37.25 1.5825,0 29.312,-28.27168 39.7234,-40.5 10.004,-11.74988 20.2477,-24.83564 43.1953,-55.17954 9.2253,-12.198754 18.3656,-23.394072 20.3118,-24.878488 10.2311,-7.803684 23.0705,-5.815474 27.5286,4.262883 1.8578,4.199674 1.9473,7.558331 2.123,79.589925 0.1823,74.75216 0.1706,75.23288 -1.9405,79.79737 -3.9983,8.64455 -13.3509,12.09402 -21.918,8.0839 z M 1132.4152,254.634 c -1.6967,-0.7692 -4.0576,-2.63527 -5.2466,-4.14682 -3.8578,-4.90431 -4.3802,-9.25185 -2.7298,-22.71559 1.2223,-9.97101 1.4635,-24.55103 1.2867,-77.77159 -0.214,-64.429989 -0.184,-65.557121 1.8326,-68.996602 C 1130.6665,75.701652 1135.3436,73 1141.4135,73 c 6.9536,0 11.5318,2.566129 14.3365,8.035882 2.0892,4.07438 2.25,5.683233 2.25,22.517018 0,9.97101 0.2966,24.98147 0.6591,33.35658 l 0.6591,15.22748 2.3151,-0.58106 c 15.0152,-3.76857 41.9168,-6.61755 64.5672,-6.83791 l 17.7995,-0.17316 0.023,-6.52241 c 0.013,-3.58733 0.4571,-18.3966 0.988,-32.90948 1.0669,-29.168409 1.3518,-30.418992 7.9411,-34.859542 6.7555,-4.552496 18.4124,-2.163958 22.3756,4.584814 1.7246,2.936711 1.8402,7.7153 2.0518,84.827258 0.2213,80.66445 0.1978,81.76649 -1.8275,85.70089 -5.367,10.42551 -21.7375,10.32885 -27.8659,-0.16453 -1.7559,-3.00638 -1.9682,-6.10166 -2.4521,-35.74661 L 1244.704,177 l -5.602,-0.13315 c -22.5146,-0.53514 -46.9698,1.49719 -67.4423,5.60474 -6.5121,1.30658 -11.9971,2.53245 -12.1888,2.72414 -0.407,0.40705 -2.1449,22.69503 -3.4827,44.66674 -1.0064,16.5281 -1.9239,19.51713 -7.1967,23.44729 -3.4286,2.55551 -12.1117,3.25766 -16.3763,1.32424 z m 397.27,-1.6849 C 1522.6267,251.73655 1516,244.62048 1516,238.25325 c 0,-5.43486 2.5958,-9.60167 10.959,-17.59189 6.9141,-6.60568 26.0816,-20.18804 37.7833,-26.77379 2.3333,-1.31316 4.2441,-2.61257 4.2462,-2.88757 0,-0.275 -1.9888,-1.31944 -4.4244,-2.32098 -7.1042,-2.92129 -21.9836,-13.21686 -26.5957,-18.40245 -17.1883,-19.32569 -11.3409,-47.23602 14.1731,-67.64974 9.1196,-7.296635 26.0955,-16.441894 36.3167,-19.564569 14.5626,-4.449032 44.182,-7.306356 52.5466,-5.069065 5.6212,1.503515 12.4924,8.313292 13.8491,13.725276 0.5214,2.079841 1.1952,16.844148 1.4974,32.809588 0.3022,15.96543 1.0915,48.36543 1.7539,72 1.3531,48.27652 1.4156,47.68472 -5.5969,53.03338 -7.9306,6.04898 -20.6266,3.83734 -25.7729,-4.48964 -2.0087,-3.25008 -2.1953,-5.08513 -2.5716,-25.28809 -0.2848,-15.29214 -0.7422,-21.77786 -1.5348,-21.76407 -0.6209,0.0108 -5.6527,1.95236 -11.1816,4.31455 -17.9713,7.67812 -31.5888,16.77257 -54.9474,36.6966 -6.6,5.62956 -13.0023,10.89573 -14.2274,11.70261 -3.1837,2.09686 -8.1699,2.97456 -12.5874,2.2157 z M 1622.6017,151.75 c -0.3462,-10.5875 -0.8928,-24.88763 -1.2148,-31.77807 l -0.5853,-12.52807 -7.6508,0.70223 c -9.5658,0.87799 -15.2645,2.63356 -23.8273,7.34022 -19.7255,10.8425 -30.458,25.93285 -25.0473,35.21766 4.4054,7.55988 13.0777,14.03099 23.2008,17.31198 4.4523,1.44305 16.0479,2.62401 27.8886,2.84034 L 1623.2312,171 Z M 60.5,249.02734 c -9.378298,-2.49535 -13.68953,-4.41222 -22,-9.78169 C 19.346451,226.87037 5.5351267,205.49285 1.3914137,181.80803 -1.5718704,164.87036 1.0683219,140.52607 8.0608405,120.31159 20.029552,85.711573 49.953994,43.258089 76.501104,23.216125 85.032083,16.775591 99.231994,9.5979751 108,7.2944076 c 7.63792,-2.0066674 26.30023,-2.2546334 35.37941,-0.470086 5.83234,1.1463696 5.90728,1.1311493 9.36109,-1.9013381 4.10415,-3.6034959 7.21206,-4.92436568 11.5746,-4.91924544 3.76477,0.00441865 8.94155,2.93213694 11.15334,6.30775514 2.64196,4.0321308 4.55459,15.4411738 5.14467,30.6885068 0.53482,13.819435 0.45147,14.710831 -1.77597,18.991929 -3.36941,6.47594 -8.00055,9.293375 -14.42877,8.778004 -7.05207,-0.565387 -10.41724,-3.318636 -15.28069,-12.502057 -6.88318,-12.997191 -7.31453,-13.267961 -21.34459,-13.398517 -8.25899,-0.07685 -11.3944,0.326732 -15.92891,2.050347 -12.319735,4.682859 -24.49341,14.698831 -38.362791,31.56324 -21.229203,25.813549 -34.521007,51.264694 -38.940768,74.563784 -1.761899,9.28797 -2.004931,26.26949 -0.471214,32.92546 3.124101,13.55787 14.129256,27.55055 26.462224,33.64583 6.489398,3.20724 8.547921,3.71766 16.716312,4.14492 17.064694,0.8926 31.689117,-4.36877 52.766767,-18.98367 C 149.64705,185.17345 151.80241,184 157.17097,184 c 3.91217,0 5.39779,0.56048 8.34532,3.14844 4.79349,4.20874 6.48371,7.76817 6.48371,13.65402 0,6.21164 -2.32896,9.77811 -11.31201,17.32271 -19.21494,16.13806 -41.76721,27.49904 -62.438384,31.45409 C 87.633543,251.61045 69.194955,251.34087 60.5,249.02734 Z"
              transform="translate(277,353) scale(0.08)"/>
        <path d="m 301.94578,263.14627 c -2.44518,-1.56955 -7.28618,-5.83465 -10.75777,-9.47801 l -6.312,-6.62427 -9.99763,5.01704 c -5.49869,2.75938 -14.1333,6.45733 -19.188,8.21767 -8.50757,2.96283 -10.11908,3.19582 -21.69038,3.1359 -45.46153,-0.23542 -67.94545,-27.19743 -67.9918,-81.53361 -0.0322,-37.74339 19.89248,-70.70583 52.4918,-86.839991 14.5479,-7.200093 20.20654,-8.485054 37.5,-8.515484 12.45945,-0.02192 15.55546,0.30456 22,2.319969 25.92962,8.109003 38.47901,20.845166 31.41183,31.879346 -2.85892,4.46373 -3.83414,17.3139 -3.85338,50.77517 -0.0219,38.05211 -0.0472,37.89615 10.08375,62.22013 6.80333,16.33456 7.54843,22.28787 3.3578,26.8287 -2.65868,2.88086 -7.73788,5.45117 -10.7721,5.45117 -1.00999,0 -3.83694,-1.28418 -6.28212,-2.85373 z M 254.64993,232.8724 c 5.95973,-1.83246 14.4716,-6.95154 21.05506,-12.66261 l 3.205,-2.7803 -0.9039,-6.46474 c -3.9224,-28.05349 -5.07638,-64.90434 -2.51974,-80.46475 0.8133,-4.95 1.48659,-9.28687 1.49619,-9.63748 0.01,-0.35062 -3.02004,-1.92562 -6.73254,-3.5 -8.27929,-3.51106 -17.16834,-3.60421 -27.48178,-0.28799 -17.97461,5.77961 -34.78222,23.48297 -41.36601,43.57061 -2.69317,8.21707 -2.89897,9.93527 -2.85723,23.85486 0.0335,11.18935 0.49684,16.63314 1.82366,21.4286 4.63947,16.76823 12.90341,25.70019 26.60361,28.75414 6.9391,1.54682 19.41266,0.73095 27.67768,-1.81034 z m 675.82915,32.19839 c -1.66151,-0.39847 -4.27201,-1.54423 -5.80111,-2.54614 -5.60843,-3.67478 -5.67477,-4.18821 -5.71431,-44.22499 -0.0264,-26.72071 -2.10144,-98.5587 -2.91567,-100.94002 -0.0264,-0.0772 -8.26049,-0.32159 -18.29799,-0.54311 -15.97309,-0.3525 -18.83929,-0.6696 -22.97333,-2.54161 -6.13379,-2.77756 -8.76794,-7.00358 -8.77293,-14.07458 -0.004,-5.886104 1.48093,-9.462093 5.482,-13.20034 l 2.67577,-2.5 h 58.66924 c 64.81705,0 62.4208,-0.229224 66.88192,6.397883 2.94273,4.37146 3.14543,13.028517 0.42423,18.117717 -3.69609,6.91251 -5.97301,7.4844 -29.79832,7.4844 -11.63877,0 -21.3934,0.22962 -21.67694,0.51028 -0.28354,0.28065 -0.12641,9.28065 0.34918,20 2.35948,53.18079 3.22492,98.95104 2.02602,107.15033 -1.63349,11.17155 -4.87663,17.40977 -10.34068,19.89042 -4.49463,2.04055 -5.52982,2.14387 -10.21708,1.01976 z m -124.16384,-1.17267 c -4.39175,-1.27073 -9.05628,-6.22269 -10.33513,-10.97198 -0.75511,-2.80427 -0.76322,-10.93144 -0.0276,-27.69748 0.57258,-13.05076 1.04251,-30.57351 1.04429,-38.93944 0.003,-14.70434 -1.53314,-34.58762 -2.85344,-36.9311 -0.36042,-0.63973 -5.4206,5.81958 -11.50655,14.68809 C 762.7088,193.08545 748.9443,209.0311 728,227.34083 c -6.325,5.52939 -16.96681,15.14359 -23.64848,21.36491 -6.68166,6.22131 -13.75471,11.9826 -15.71788,12.80287 -5.69789,2.38073 -14.19557,1.93816 -19.20997,-1.00047 -7.16482,-4.19887 -7.2173,-4.57208 -7.80651,-55.50814 -0.28311,-24.475 -1.05838,-58.96149 -1.72282,-76.63664 -1.17312,-31.206744 -1.15144,-32.245778 0.74928,-35.908375 2.58139,-4.974223 7.35782,-7.455979 14.34078,-7.451247 7.26192,0.0049 11.50228,2.581587 14.1688,8.609696 2.13838,4.834163 2.187,5.82075 4.62656,93.886566 l 0.72024,26 15.03294,-15 c 20.91961,-20.87377 33.08055,-35.48161 67.43204,-81 7.88633,-10.45 15.95793,-20.74129 17.9369,-22.869532 4.12166,-4.432566 12.19813,-8.61662 16.59812,-8.598737 4.97361,0.02021 10.96583,3.370009 13.59546,7.600189 L 827.5,97.5 l 0.7694,49 c 0.78697,50.11873 0.18661,99.54425 -1.28859,106.0851 -1.04279,4.62359 -6.32382,10.13768 -10.93645,11.4191 -4.14301,1.15096 -5.43336,1.13689 -9.72912,-0.10608 z m 369.15976,0.085 c -1.6638,-0.50805 -4.5888,-2.54088 -6.5,-4.5174 l -3.475,-3.59369 0.3554,-42.75262 c 0.3766,-45.2967 -0.7573,-66.72779 -3.3832,-63.9457 -0.6885,0.72946 -6.7465,9.20129 -13.4621,18.82629 -6.7156,9.625 -14.7526,20.65 -17.8601,24.5 -8.3035,10.28759 -24.1835,26.47721 -36.15,36.85479 -5.775,5.00821 -15.2882,13.69291 -21.1405,19.29934 -13.3505,12.78964 -16.8296,14.68626 -25.9908,14.16861 -7.2657,-0.41055 -10.4152,-1.99539 -14.2965,-7.1939 -1.9795,-2.65133 -2.075,-4.45332 -2.7265,-51.43821 -0.3714,-26.77985 -1.1941,-61.87298 -1.8283,-77.98474 -1.1397,-28.953976 -1.1286,-29.344768 0.9589,-33.657034 C 1032.5675,87.19635 1036.7213,85 1044.2532,85 c 6.589,0 11.1331,2.678892 14.0139,8.261562 2.2458,4.352281 3.0882,20.486858 4.3065,82.488438 0.3918,19.9375 1.081,36.25 1.5315,36.25 1.5903,0 20.3868,-18.67381 32.6691,-32.45589 12.7746,-14.33431 24.1123,-28.5785 51.6162,-64.84813 15.9164,-20.989053 20.6204,-25.720109 27.6745,-27.833572 7.642,-2.289589 15.8651,1.464358 19.0678,8.704697 1.9321,4.367868 2.0026,6.944655 2.182,79.723325 L 1197.5,250.5 l -2.321,4.71229 c -3.6297,7.36963 -12.0371,11.11199 -19.704,8.77083 z m -790.20602,-1.97924 c -14.46551,-2.03951 -26.11773,-6.29815 -32.45356,-11.86108 -9.61695,-8.4438 -9.07394,-21.00025 1.20838,-27.94207 4.49989,-3.03798 8.94387,-2.45574 22.37346,2.93129 22.98425,9.21972 30.89591,9.16955 41.12664,-0.26081 7.59695,-7.00263 10.60035,-14.98233 8.53122,-22.66651 -2.27201,-8.4376 -8.39327,-12.84372 -24.55512,-17.67491 -14.17793,-4.23815 -17.77226,-5.62755 -21.25,-8.21426 -2.73258,-2.03246 -3.25,-3.06127 -3.25,-6.46213 0,-5.05106 2.49111,-9.39015 6.45606,-11.24533 1.67417,-0.78334 7.76894,-2.15534 13.54394,-3.04891 5.775,-0.89356 12.61652,-2.31411 15.20337,-3.15679 8.69879,-2.83364 13.47076,-11.25973 12.56467,-22.18599 -0.9022,-10.87935 -8.7462,-16.40576 -25.35116,-17.86092 -8.87833,-0.77804 -12.59402,0.35354 -22.7395,6.92508 -6.28177,4.06891 -8.84241,5.14334 -13,5.45474 -6.21611,0.46558 -11.05404,-1.79279 -14.42738,-6.73477 -6.43172,-9.42254 1.31025,-20.89022 20.31274,-30.087955 12.023,-5.819466 21.1546,-7.454502 33.67908,-6.030324 17.85884,2.030756 33.69386,8.996193 42.95142,18.893269 8.64742,9.2448 11.32476,18.05855 9.83563,32.3788 -1.4087,13.54682 -5.35533,22.90507 -13.28997,31.51314 l -3.95773,4.29363 3.97754,4.76946 C 452.90667,185.89894 457,196.02094 457,208.94645 c 0,26.17859 -14.24295,45.43801 -38.5,52.05997 -5.40961,1.47678 -25.5448,2.08116 -33.23102,0.99746 z M 508.5,261.54964 c -4.69463,-1.72217 -11.11492,-8.18338 -12.14135,-12.21872 -0.39603,-1.55701 -0.1526,-35.21797 0.54097,-74.80215 1.37132,-78.265656 1.48252,-79.576484 7.10038,-83.700397 6.07489,-4.459409 38.21518,-7.323197 55.03435,-4.903711 32.05828,4.611675 55.80734,22.731268 58.95189,44.977968 2.22041,15.70871 -4.06519,28.19894 -18.4262,36.61505 l -4.68918,2.74804 4.31457,2.527 c 14.81996,8.67988 28.36363,24.21452 30.72969,35.24708 1.23823,5.7737 -0.0761,14.39519 -3.09724,20.31718 -10.08172,19.76181 -45.65627,31.84968 -100.31788,34.087 -10.94404,0.44794 -14.87313,0.25272 -18,-0.89434 z m 41,-28.65062 c 22.93049,-2.16178 41.07399,-7.8518 46.11631,-14.46263 2.60541,-3.41587 3.16289,-9.05121 1.2615,-12.75213 -3.33102,-6.48362 -13.00796,-13.05388 -25.38741,-17.23706 -6.96137,-2.35234 -10.30851,-2.79852 -25.9904,-3.46453 -9.9,-0.42046 -18.12912,-0.64695 -18.28693,-0.50331 -0.60577,0.55138 -1.49256,47.34991 -0.92525,48.8283 0.64699,1.68603 1.07315,1.67853 23.21218,-0.40864 z m 14,-76.93101 c 10.54989,-1.19047 18.3246,-4.51128 21.72587,-9.27975 3.27607,-4.59295 3.21747,-13.86561 -0.11717,-18.54107 -2.67322,-3.74808 -9.83037,-8.56351 -18.1087,-12.1838 -5.06671,-2.21577 -6.79986,-2.40755 -22,-2.43432 l -16.5,-0.0291 -0.34323,4 c -0.18877,2.2 -0.0289,11.73894 0.35531,21.19765 l 0.69854,17.19765 4.14469,0.37764 c 8.76354,0.79849 21.50875,0.66957 30.14469,-0.30493 z m 676.0022,103.45659 c -9.7926,-5.10603 -12.2522,-13.92993 -6.3617,-22.82294 5.1388,-7.7582 23.8966,-22.18009 45.458,-34.95031 l 4.8097,-2.84866 -8.4541,-4.39882 c -27.0029,-14.05013 -36.5295,-29.61038 -31.4143,-51.3108 3.3511,-14.21691 14.139,-27.74858 30.721,-38.5346 17.3245,-11.268949 32.5228,-16.487053 53.8349,-18.483382 23.6125,-2.211809 30.1682,-1.094257 36.6083,6.240598 4.2076,4.792211 5.2898,9.150424 5.2603,21.184314 -0.014,5.5 0.743,37.9 1.6812,72 1.6498,59.96874 1.6456,62.12578 -0.1262,65.83924 -3.4626,7.25697 -13.7296,11.39661 -21.7228,8.75861 -1.8924,-0.62454 -4.9503,-2.69301 -6.7953,-4.59661 -4.2465,-4.38125 -4.8314,-8.16435 -4.9282,-31.87624 L 1338,205.75 l -3.2277,0.64555 c -5.4256,1.08511 -25.7017,11.34817 -35.7603,18.10058 -5.2316,3.51199 -17.1372,12.75656 -26.4568,20.54348 -9.3197,7.78692 -18.0115,14.56357 -19.3151,15.05922 -3.6554,1.38975 -10.4158,1.05796 -13.7379,-0.67423 z M 1336.5913,159.25 c -0.344,-10.3125 -0.8929,-24.48554 -1.2197,-31.49565 l -0.5942,-12.74566 -5.6387,0.56149 c -13.6414,1.35837 -22.7084,4.83652 -34.8669,13.37512 -10.0069,7.0276 -15.3072,13.80643 -17.1267,21.90436 -0.8162,3.63272 -0.6084,4.60513 1.794,8.39328 5.7846,9.12135 16.1391,15.66728 28.0609,17.7396 2.475,0.43022 10.2863,0.83515 17.3584,0.89984 L 1337.2168,178 Z M 6.9994944,256.75 C 5.1865448,255.5125 2.8349654,252.925 1.7737623,251 -0.07334413,247.64939 -0.13414414,245.60064 0.34928364,203 0.62702349,178.525 1.5462255,148.6 2.3919547,136.5 5.4143925,93.257442 6.0188089,81.104354 6.594441,52 7.2055638,21.101211 8.1475254,13.410302 11.980001,8.0280858 13.06246,6.507913 15.197283,4.8078456 16.724054,4.2501582 21.354606,2.5587445 36.632556,0.89797369 53,0.30682612 77.880808,-0.59180101 92.959457,3.2786291 111.09252,15.218178 c 16.42449,10.814548 26.73078,22.935074 32.77146,38.540271 2.41959,6.250653 2.60664,7.870211 2.56877,22.241551 -0.0393,14.920452 -0.16671,15.869505 -3.40699,25.3824 -13.42674,39.41855 -56.041788,62.76752 -104.621021,57.3223 l -7.095262,-0.79531 -0.654738,10.70087 C 30.294632,174.49574 30,194.44577 30,212.94367 30,245.85509 29.95176,246.6703 27.75,250.96412 23.778407,258.70943 13.903765,261.46278 6.9994944,256.75 Z M 73.376483,126.03159 C 95.165936,120.45879 111.77657,105.26293 116.04201,87 120.50964,67.871369 114.36334,53.79523 96.401202,42.019 85.536394,34.89588 75.134248,31.786701 60.284737,31.223864 53.566343,30.969219 45.643468,31.063983 42.678349,31.43445 l -5.391125,0.673576 -0.676129,19.195987 c -0.371872,10.557793 -1.351569,31.743415 -2.177105,47.079161 -0.825537,15.335746 -1.364753,28.019396 -1.198258,28.185896 0.166495,0.16649 3.669067,0.75145 7.783493,1.2999 9.744001,1.29887 23.048577,0.54338 32.357258,-1.83738 z"
              transform="translate(260,375) scale(0.08)"/>
    </g>

</svg>